<svg xmlns="http://www.w3.org/2000/svg" xmlns:xlink="http://www.w3.org/1999/xlink" width="500" zoomAndPan="magnify" viewBox="0 0 375 374.999991" height="500" preserveAspectRatio="xMidYMid meet" version="1.0"><defs><g/><clipPath id="b47143c9cf"><path d="M 80.675781 115.582031 L 305.675781 115.582031 L 305.675781 297.832031 L 80.675781 297.832031 Z M 80.675781 115.582031 " clip-rule="nonzero"/></clipPath><clipPath id="01b88cb091"><path d="M 88.09375 120.101562 L 298.09375 120.101562 L 298.09375 290.351562 L 88.09375 290.351562 Z M 88.09375 120.101562 " clip-rule="nonzero"/></clipPath><clipPath id="5a1de23e76"><path d="M 118.101562 117 L 262 117 L 262 241 L 118.101562 241 Z M 118.101562 117 " clip-rule="nonzero"/></clipPath></defs><rect x="-37.5" width="450" fill="#ffffff" y="-37.499999" height="449.999989" fill-opacity="1"/><rect x="-37.5" width="450" fill="#ffffff" y="-37.499999" height="449.999989" fill-opacity="1"/><rect x="-37.5" width="450" fill="#ffffff" y="-37.499999" height="449.999989" fill-opacity="1"/><g clip-path="url(#b47143c9cf)"><path fill="#434336" d="M 193.175781 298.15625 C 131.164062 298.15625 80.675781 247.671875 80.675781 185.65625 C 80.675781 123.644531 131.164062 73.15625 193.175781 73.15625 C 255.191406 73.15625 305.675781 123.644531 305.675781 185.65625 C 305.675781 247.671875 255.191406 298.15625 193.175781 298.15625 Z M 193.175781 74.820312 C 132.050781 74.820312 82.339844 124.53125 82.339844 185.65625 C 82.339844 246.785156 132.050781 296.496094 193.175781 296.496094 C 254.304688 296.496094 304.015625 246.785156 304.015625 185.65625 C 304.015625 124.53125 254.304688 74.820312 193.175781 74.820312 Z M 193.175781 74.820312 " fill-opacity="1" fill-rule="nonzero"/></g><g clip-path="url(#01b88cb091)"><path fill="#434336" d="M 193.09375 290.476562 C 135.214844 290.476562 88.09375 243.355469 88.09375 185.476562 C 88.09375 127.597656 135.214844 80.476562 193.09375 80.476562 C 250.976562 80.476562 298.09375 127.597656 298.09375 185.476562 C 298.09375 243.355469 250.976562 290.476562 193.09375 290.476562 Z M 193.09375 82.027344 C 136.042969 82.027344 89.648438 128.425781 89.648438 185.476562 C 89.648438 242.527344 136.042969 288.925781 193.09375 288.925781 C 250.148438 288.925781 296.542969 242.527344 296.542969 185.476562 C 296.542969 128.425781 250.148438 82.027344 193.09375 82.027344 Z M 193.09375 82.027344 " fill-opacity="1" fill-rule="nonzero"/></g><g fill="#434336" fill-opacity="1"><g transform="translate(148.992778, 263.274261)"><g><path d="M 2.90625 0.015625 L 0.34375 -9.3125 L 1.546875 -9.3125 L 3.546875 -1.3125 L 5.84375 -9.3125 L 7.078125 -9.3125 L 9.296875 -1.3125 L 11.328125 -9.3125 L 12.53125 -9.3125 L 9.921875 0 L 8.640625 0 L 6.421875 -7.6875 L 4.15625 0 Z M 2.90625 0.015625 "/></g></g></g><g fill="#434336" fill-opacity="1"><g transform="translate(167.997513, 263.274261)"><g><path d="M 3.875 0.15625 C 3.25 0.15625 2.691406 0.015625 2.203125 -0.265625 C 1.710938 -0.554688 1.328125 -0.957031 1.046875 -1.46875 C 0.773438 -1.988281 0.640625 -2.597656 0.640625 -3.296875 C 0.640625 -3.984375 0.773438 -4.585938 1.046875 -5.109375 C 1.328125 -5.628906 1.710938 -6.03125 2.203125 -6.3125 C 2.691406 -6.601562 3.257812 -6.75 3.90625 -6.75 C 4.539062 -6.75 5.09375 -6.601562 5.5625 -6.3125 C 6.03125 -6.03125 6.382812 -5.65625 6.625 -5.1875 C 6.875 -4.71875 7 -4.210938 7 -3.671875 C 7 -3.578125 7 -3.476562 7 -3.375 C 7 -3.28125 7 -3.171875 7 -3.046875 L 1.734375 -3.046875 C 1.765625 -2.535156 1.882812 -2.113281 2.09375 -1.78125 C 2.300781 -1.457031 2.5625 -1.207031 2.875 -1.03125 C 3.1875 -0.863281 3.519531 -0.78125 3.875 -0.78125 C 4.34375 -0.78125 4.726562 -0.882812 5.03125 -1.09375 C 5.34375 -1.3125 5.570312 -1.601562 5.71875 -1.96875 L 6.828125 -1.96875 C 6.648438 -1.351562 6.304688 -0.84375 5.796875 -0.4375 C 5.296875 -0.0390625 4.65625 0.15625 3.875 0.15625 Z M 3.875 -5.8125 C 3.34375 -5.8125 2.867188 -5.648438 2.453125 -5.328125 C 2.046875 -5.003906 1.8125 -4.53125 1.75 -3.90625 L 5.90625 -3.90625 C 5.875 -4.5 5.664062 -4.960938 5.28125 -5.296875 C 4.90625 -5.640625 4.4375 -5.8125 3.875 -5.8125 Z M 3.875 -5.8125 "/></g></g></g><g fill="#434336" fill-opacity="1"><g transform="translate(181.713769, 263.274261)"><g><path d="M 4.4375 0.15625 C 3.894531 0.15625 3.410156 0.046875 2.984375 -0.171875 C 2.566406 -0.390625 2.25 -0.703125 2.03125 -1.109375 L 1.921875 0 L 0.921875 0 L 0.921875 -9.578125 L 2.03125 -9.578125 L 2.03125 -5.5 C 2.25 -5.820312 2.550781 -6.109375 2.9375 -6.359375 C 3.332031 -6.617188 3.835938 -6.75 4.453125 -6.75 C 5.109375 -6.75 5.679688 -6.597656 6.171875 -6.296875 C 6.660156 -5.992188 7.039062 -5.582031 7.3125 -5.0625 C 7.582031 -4.539062 7.71875 -3.945312 7.71875 -3.28125 C 7.71875 -2.613281 7.582031 -2.019531 7.3125 -1.5 C 7.039062 -0.988281 6.65625 -0.582031 6.15625 -0.28125 C 5.664062 0.0078125 5.09375 0.15625 4.4375 0.15625 Z M 4.328125 -0.8125 C 4.765625 -0.8125 5.148438 -0.914062 5.484375 -1.125 C 5.828125 -1.332031 6.09375 -1.617188 6.28125 -1.984375 C 6.476562 -2.359375 6.578125 -2.796875 6.578125 -3.296875 C 6.578125 -3.796875 6.476562 -4.226562 6.28125 -4.59375 C 6.09375 -4.96875 5.828125 -5.257812 5.484375 -5.46875 C 5.148438 -5.675781 4.765625 -5.78125 4.328125 -5.78125 C 3.878906 -5.78125 3.484375 -5.675781 3.140625 -5.46875 C 2.804688 -5.257812 2.539062 -4.96875 2.34375 -4.59375 C 2.15625 -4.226562 2.0625 -3.796875 2.0625 -3.296875 C 2.0625 -2.796875 2.15625 -2.359375 2.34375 -1.984375 C 2.539062 -1.617188 2.804688 -1.332031 3.140625 -1.125 C 3.484375 -0.914062 3.878906 -0.8125 4.328125 -0.8125 Z M 4.328125 -0.8125 "/></g></g></g><g fill="#434336" fill-opacity="1"><g transform="translate(196.213978, 263.274261)"><g><path d="M 3.4375 0.15625 C 2.65625 0.15625 2 -0.0390625 1.46875 -0.4375 C 0.945312 -0.832031 0.644531 -1.375 0.5625 -2.0625 L 1.703125 -2.0625 C 1.773438 -1.71875 1.957031 -1.414062 2.25 -1.15625 C 2.550781 -0.90625 2.953125 -0.78125 3.453125 -0.78125 C 3.921875 -0.78125 4.265625 -0.878906 4.484375 -1.078125 C 4.710938 -1.285156 4.828125 -1.523438 4.828125 -1.796875 C 4.828125 -2.191406 4.679688 -2.457031 4.390625 -2.59375 C 4.109375 -2.726562 3.703125 -2.847656 3.171875 -2.953125 C 2.816406 -3.023438 2.460938 -3.125 2.109375 -3.25 C 1.753906 -3.382812 1.457031 -3.570312 1.21875 -3.8125 C 0.976562 -4.0625 0.859375 -4.382812 0.859375 -4.78125 C 0.859375 -5.363281 1.070312 -5.835938 1.5 -6.203125 C 1.9375 -6.566406 2.519531 -6.75 3.25 -6.75 C 3.957031 -6.75 4.535156 -6.570312 4.984375 -6.21875 C 5.429688 -5.875 5.6875 -5.378906 5.75 -4.734375 L 4.65625 -4.734375 C 4.613281 -5.066406 4.46875 -5.328125 4.21875 -5.515625 C 3.976562 -5.710938 3.65625 -5.8125 3.25 -5.8125 C 2.84375 -5.8125 2.53125 -5.726562 2.3125 -5.5625 C 2.101562 -5.394531 2 -5.171875 2 -4.890625 C 2 -4.628906 2.132812 -4.421875 2.40625 -4.265625 C 2.6875 -4.117188 3.066406 -3.988281 3.546875 -3.875 C 3.953125 -3.789062 4.335938 -3.679688 4.703125 -3.546875 C 5.078125 -3.421875 5.378906 -3.234375 5.609375 -2.984375 C 5.847656 -2.734375 5.96875 -2.367188 5.96875 -1.890625 C 5.976562 -1.296875 5.753906 -0.804688 5.296875 -0.421875 C 4.835938 -0.0351562 4.21875 0.15625 3.4375 0.15625 Z M 3.4375 0.15625 "/></g></g></g><g fill="#434336" fill-opacity="1"><g transform="translate(209.0134, 263.274261)"><g><path d="M 1.59375 -8.0625 C 1.375 -8.0625 1.191406 -8.132812 1.046875 -8.28125 C 0.898438 -8.425781 0.828125 -8.609375 0.828125 -8.828125 C 0.828125 -9.035156 0.898438 -9.210938 1.046875 -9.359375 C 1.191406 -9.503906 1.375 -9.578125 1.59375 -9.578125 C 1.8125 -9.578125 1.992188 -9.503906 2.140625 -9.359375 C 2.285156 -9.210938 2.359375 -9.035156 2.359375 -8.828125 C 2.359375 -8.609375 2.285156 -8.425781 2.140625 -8.28125 C 1.992188 -8.132812 1.8125 -8.0625 1.59375 -8.0625 Z M 1.03125 0 L 1.03125 -6.59375 L 2.15625 -6.59375 L 2.15625 0 Z M 1.03125 0 "/></g></g></g><g fill="#434336" fill-opacity="1"><g transform="translate(218.344703, 263.274261)"><g><path d="M 3.53125 0 C 2.925781 0 2.445312 -0.144531 2.09375 -0.4375 C 1.75 -0.726562 1.578125 -1.253906 1.578125 -2.015625 L 1.578125 -5.65625 L 0.4375 -5.65625 L 0.4375 -6.59375 L 1.578125 -6.59375 L 1.734375 -8.171875 L 2.703125 -8.171875 L 2.703125 -6.59375 L 4.640625 -6.59375 L 4.640625 -5.65625 L 2.703125 -5.65625 L 2.703125 -2.015625 C 2.703125 -1.597656 2.785156 -1.316406 2.953125 -1.171875 C 3.117188 -1.023438 3.414062 -0.953125 3.84375 -0.953125 L 4.53125 -0.953125 L 4.53125 0 Z M 3.53125 0 "/></g></g></g><g fill="#434336" fill-opacity="1"><g transform="translate(229.642603, 263.274261)"><g><path d="M 3.875 0.15625 C 3.25 0.15625 2.691406 0.015625 2.203125 -0.265625 C 1.710938 -0.554688 1.328125 -0.957031 1.046875 -1.46875 C 0.773438 -1.988281 0.640625 -2.597656 0.640625 -3.296875 C 0.640625 -3.984375 0.773438 -4.585938 1.046875 -5.109375 C 1.328125 -5.628906 1.710938 -6.03125 2.203125 -6.3125 C 2.691406 -6.601562 3.257812 -6.75 3.90625 -6.75 C 4.539062 -6.75 5.09375 -6.601562 5.5625 -6.3125 C 6.03125 -6.03125 6.382812 -5.65625 6.625 -5.1875 C 6.875 -4.71875 7 -4.210938 7 -3.671875 C 7 -3.578125 7 -3.476562 7 -3.375 C 7 -3.28125 7 -3.171875 7 -3.046875 L 1.734375 -3.046875 C 1.765625 -2.535156 1.882812 -2.113281 2.09375 -1.78125 C 2.300781 -1.457031 2.5625 -1.207031 2.875 -1.03125 C 3.1875 -0.863281 3.519531 -0.78125 3.875 -0.78125 C 4.34375 -0.78125 4.726562 -0.882812 5.03125 -1.09375 C 5.34375 -1.3125 5.570312 -1.601562 5.71875 -1.96875 L 6.828125 -1.96875 C 6.648438 -1.351562 6.304688 -0.84375 5.796875 -0.4375 C 5.296875 -0.0390625 4.65625 0.15625 3.875 0.15625 Z M 3.875 -5.8125 C 3.34375 -5.8125 2.867188 -5.648438 2.453125 -5.328125 C 2.046875 -5.003906 1.8125 -4.53125 1.75 -3.90625 L 5.90625 -3.90625 C 5.875 -4.5 5.664062 -4.960938 5.28125 -5.296875 C 4.90625 -5.640625 4.4375 -5.8125 3.875 -5.8125 Z M 3.875 -5.8125 "/></g></g></g><g clip-path="url(#5a1de23e76)"><path fill="#c8ede6" d="M 255.65625 191.15625 C 256.175781 190.082031 256.640625 188.949219 257.042969 187.765625 C 261.632812 174.222656 254.691406 157.996094 240.074219 154.078125 C 238.496094 134.234375 224.550781 120.621094 208.800781 118.300781 C 190.773438 115.640625 174.257812 127.09375 168.765625 145.292969 C 162.140625 142.945312 155.6875 143.234375 149.605469 146.789062 C 146.847656 148.0625 144.320312 149.945312 142.058594 152.421875 C 138.734375 156.058594 136.570312 160.648438 135.691406 165.488281 C 134.386719 165.695312 133.105469 165.898438 131.898438 166.332031 C 124.855469 168.859375 120.410156 174.058594 119.195312 181.886719 C 118.433594 186.761719 119.964844 191.628906 120.820312 193.589844 C 124.191406 201.359375 132.015625 205.757812 139.960938 204.59375 C 140.359375 204.539062 140.933594 204.714844 141.273438 205 C 141.695312 217.414062 147.71875 228.390625 156.761719 234.660156 C 171.265625 244.722656 189.929688 241.625 201.703125 227.824219 C 206.746094 232.984375 212.75 235.492188 219.804688 234.582031 C 226.816406 233.675781 232.261719 229.808594 236.238281 223.515625 C 238.070312 224.007812 239.8125 224.71875 241.609375 224.914062 C 248.65625 225.6875 254.332031 222.851562 258.574219 216.546875 C 258.722656 216.332031 258.929688 216.167969 259.109375 215.976562 C 259.714844 214.585938 260.324219 213.195312 260.929688 211.804688 C 261.199219 209.691406 261.675781 207.578125 261.703125 205.472656 C 261.769531 199.796875 259.449219 194.621094 255.65625 191.15625 Z M 255.65625 191.15625 " fill-opacity="1" fill-rule="nonzero"/></g><path fill="#fdfcef" d="M 160.542969 232.769531 C 160.542969 232.769531 140.164062 232.769531 140.039062 232.769531 C 135.332031 232.769531 131.519531 228.953125 131.519531 224.246094 C 131.519531 220.140625 134.421875 216.714844 138.289062 215.90625 C 138.242188 215.546875 138.214844 215.183594 138.214844 214.8125 C 138.214844 209.9375 142.164062 205.984375 147.039062 205.984375 C 149.917969 205.984375 152.464844 207.371094 154.078125 209.503906 C 154.488281 204.074219 159.335938 199.890625 165.007812 200.582031 C 169.15625 201.089844 172.582031 204.296875 173.347656 208.402344 C 173.589844 209.722656 173.566406 211 173.324219 212.199219 C 174.433594 211 176.019531 210.25 177.78125 210.25 C 181.003906 210.25 183.640625 212.761719 183.847656 215.933594 C 185.3125 215.609375 186.90625 215.628906 188.582031 216.261719 C 191.789062 217.464844 194.074219 220.484375 194.207031 223.910156 C 194.398438 228.769531 190.511719 232.773438 185.691406 232.773438 C 185.328125 232.773438 184.039062 232.773438 183.742188 232.773438 L 166.046875 232.773438 " fill-opacity="1" fill-rule="nonzero"/><path fill="#472b29" d="M 140.039062 233.640625 L 160.542969 233.640625 C 161.023438 233.640625 161.414062 233.25 161.414062 232.769531 C 161.414062 232.289062 161.023438 231.898438 160.542969 231.898438 L 140.039062 231.898438 C 135.820312 231.898438 132.386719 228.464844 132.386719 224.246094 C 132.386719 220.644531 134.945312 217.496094 138.464844 216.757812 C 138.910156 216.667969 139.207031 216.25 139.152344 215.796875 C 139.113281 215.472656 139.082031 215.144531 139.082031 214.8125 C 139.082031 210.425781 142.652344 206.859375 147.035156 206.859375 C 149.542969 206.859375 151.855469 208.011719 153.378906 210.027344 C 153.597656 210.316406 153.96875 210.441406 154.320312 210.335938 C 154.667969 210.234375 154.914062 209.929688 154.941406 209.570312 C 155.125 207.167969 156.300781 204.914062 158.167969 203.382812 C 160.054688 201.832031 162.449219 201.148438 164.894531 201.449219 C 168.671875 201.914062 171.792969 204.835938 172.484375 208.5625 C 172.699219 209.726562 172.695312 210.890625 172.460938 212.023438 C 172.386719 212.40625 172.570312 212.796875 172.917969 212.972656 C 173.265625 213.152344 173.691406 213.078125 173.957031 212.792969 C 174.957031 211.714844 176.3125 211.121094 177.773438 211.121094 C 180.507812 211.121094 182.789062 213.261719 182.96875 215.992188 C 182.988281 216.246094 183.113281 216.476562 183.316406 216.628906 C 183.519531 216.785156 183.785156 216.835938 184.027344 216.785156 C 185.496094 216.460938 186.882812 216.554688 188.269531 217.074219 C 191.179688 218.167969 193.210938 220.925781 193.328125 223.941406 C 193.410156 226.042969 192.65625 228.035156 191.203125 229.550781 C 189.746094 231.0625 187.785156 231.898438 185.6875 231.898438 L 166.042969 231.898438 C 165.558594 231.898438 165.167969 232.289062 165.167969 232.769531 C 165.167969 233.253906 165.558594 233.644531 166.042969 233.644531 L 185.6875 233.644531 C 188.269531 233.644531 190.671875 232.617188 192.460938 230.757812 C 194.246094 228.902344 195.175781 226.457031 195.074219 223.875 C 194.929688 220.167969 192.441406 216.78125 188.886719 215.445312 C 187.492188 214.921875 186.050781 214.75 184.585938 214.921875 C 183.925781 211.746094 181.101562 209.375 177.777344 209.375 C 176.585938 209.375 175.417969 209.691406 174.386719 210.265625 C 174.386719 209.59375 174.328125 208.921875 174.203125 208.246094 C 173.371094 203.777344 169.632812 200.273438 165.113281 199.71875 C 162.183594 199.363281 159.324219 200.183594 157.066406 202.035156 C 155.316406 203.46875 154.074219 205.433594 153.511719 207.601562 C 151.75 206.003906 149.46875 205.113281 147.039062 205.113281 C 141.691406 205.113281 137.34375 209.464844 137.34375 214.8125 C 137.34375 214.957031 137.347656 215.101562 137.355469 215.246094 C 133.425781 216.417969 130.648438 220.082031 130.648438 224.246094 C 130.644531 229.429688 134.859375 233.640625 140.039062 233.640625 Z M 140.039062 233.640625 " fill-opacity="1" fill-rule="nonzero"/><path fill="#fdfcef" d="M 165.480469 214 C 168.632812 213.789062 171.347656 215.96875 171.542969 218.859375 C 171.566406 219.21875 171.550781 219.574219 171.496094 219.917969 C 172.105469 219.230469 173.003906 218.765625 174.039062 218.695312 C 175.929688 218.574219 177.5625 219.820312 177.800781 221.519531 C 178.144531 221.425781 178.503906 221.363281 178.875 221.339844 C 181.632812 221.15625 184.007812 223.0625 184.179688 225.59375 " fill-opacity="1" fill-rule="nonzero"/><path fill="#472b29" d="M 184.175781 226.027344 C 184.1875 226.027344 184.195312 226.027344 184.207031 226.027344 C 184.445312 226.011719 184.628906 225.804688 184.613281 225.5625 C 184.425781 222.796875 181.84375 220.699219 178.84375 220.902344 C 178.605469 220.917969 178.371094 220.945312 178.132812 220.992188 C 177.65625 219.304688 175.941406 218.125 174.007812 218.261719 C 173.265625 218.308594 172.574219 218.539062 171.980469 218.929688 C 171.980469 218.894531 171.976562 218.863281 171.972656 218.832031 C 171.765625 215.703125 168.859375 213.320312 165.449219 213.5625 C 165.210938 213.578125 165.027344 213.789062 165.042969 214.027344 C 165.058594 214.269531 165.261719 214.472656 165.507812 214.433594 C 168.386719 214.25 170.925781 216.238281 171.105469 218.890625 C 171.125 219.210938 171.109375 219.535156 171.0625 219.855469 C 171.035156 220.042969 171.136719 220.230469 171.308594 220.3125 C 171.484375 220.394531 171.691406 220.351562 171.820312 220.207031 C 172.382812 219.570312 173.179688 219.1875 174.0625 219.132812 C 175.722656 219.074219 177.15625 220.101562 177.367188 221.578125 C 177.382812 221.703125 177.453125 221.816406 177.558594 221.882812 C 177.660156 221.953125 177.789062 221.972656 177.914062 221.941406 C 178.238281 221.851562 178.570312 221.796875 178.902344 221.769531 C 181.410156 221.609375 183.585938 223.332031 183.738281 225.621094 C 183.757812 225.851562 183.949219 226.027344 184.175781 226.027344 Z M 184.175781 226.027344 " fill-opacity="1" fill-rule="nonzero"/><path fill="#fdfcef" d="M 136.585938 216.90625 C 139.550781 215.507812 142.976562 216.496094 144.238281 219.113281 C 144.394531 219.4375 144.511719 219.773438 144.589844 220.113281 " fill-opacity="1" fill-rule="nonzero"/><path fill="#472b29" d="M 144.589844 220.550781 C 144.621094 220.550781 144.652344 220.546875 144.6875 220.539062 C 144.921875 220.488281 145.066406 220.253906 145.015625 220.015625 C 144.929688 219.640625 144.800781 219.269531 144.632812 218.925781 C 143.265625 216.097656 139.574219 215.019531 136.402344 216.511719 C 136.183594 216.613281 136.089844 216.871094 136.195312 217.089844 C 136.296875 217.308594 136.558594 217.398438 136.773438 217.300781 C 139.519531 216.003906 142.691406 216.902344 143.847656 219.304688 C 143.988281 219.589844 144.09375 219.894531 144.164062 220.210938 C 144.210938 220.414062 144.390625 220.550781 144.589844 220.550781 Z M 144.589844 220.550781 " fill-opacity="1" fill-rule="nonzero"/><path fill="#ffffff" d="M 180.109375 136.152344 L 162.625 136.152344 C 162.144531 136.152344 161.753906 135.761719 161.753906 135.28125 C 161.753906 134.800781 162.144531 134.410156 162.625 134.410156 L 180.109375 134.410156 C 180.59375 134.410156 180.984375 134.800781 180.984375 135.28125 C 180.984375 135.761719 180.59375 136.152344 180.109375 136.152344 Z M 186.003906 135.28125 C 186.003906 134.800781 185.613281 134.410156 185.132812 134.410156 L 182.613281 134.410156 C 182.132812 134.410156 181.742188 134.800781 181.742188 135.28125 C 181.742188 135.761719 182.132812 136.152344 182.613281 136.152344 L 185.132812 136.152344 C 185.617188 136.152344 186.003906 135.761719 186.003906 135.28125 Z M 193.074219 135.28125 C 193.074219 134.800781 192.683594 134.410156 192.203125 134.410156 L 187.765625 134.410156 C 187.28125 134.410156 186.890625 134.800781 186.890625 135.28125 C 186.890625 135.761719 187.28125 136.152344 187.765625 136.152344 L 192.203125 136.152344 C 192.683594 136.152344 193.074219 135.761719 193.074219 135.28125 Z M 193.074219 138.769531 C 193.074219 138.289062 192.683594 137.898438 192.203125 137.898438 L 175.4375 137.898438 C 174.957031 137.898438 174.566406 138.289062 174.566406 138.769531 C 174.566406 139.25 174.957031 139.640625 175.4375 139.640625 L 192.203125 139.640625 C 192.683594 139.640625 193.074219 139.25 193.074219 138.769531 Z M 173.292969 138.769531 C 173.292969 138.289062 172.902344 137.898438 172.417969 137.898438 L 171.410156 137.898438 C 170.925781 137.898438 170.539062 138.289062 170.539062 138.769531 C 170.539062 139.25 170.925781 139.640625 171.410156 139.640625 L 172.417969 139.640625 C 172.902344 139.640625 173.292969 139.25 173.292969 138.769531 Z M 169.148438 138.769531 C 169.148438 138.289062 168.757812 137.898438 168.277344 137.898438 L 165.738281 137.898438 C 165.257812 137.898438 164.867188 138.289062 164.867188 138.769531 C 164.867188 139.25 165.257812 139.640625 165.738281 139.640625 L 168.277344 139.640625 C 168.757812 139.640625 169.148438 139.25 169.148438 138.769531 Z M 185.074219 131.796875 C 185.074219 131.3125 184.683594 130.921875 184.203125 130.921875 L 175.4375 130.921875 C 174.957031 130.921875 174.566406 131.3125 174.566406 131.796875 C 174.566406 132.277344 174.957031 132.667969 175.4375 132.667969 L 184.203125 132.667969 C 184.683594 132.667969 185.074219 132.277344 185.074219 131.796875 Z M 185.074219 128.308594 C 185.074219 127.828125 184.683594 127.4375 184.203125 127.4375 L 182.011719 127.4375 C 181.53125 127.4375 181.140625 127.828125 181.140625 128.308594 C 181.140625 128.789062 181.53125 129.179688 182.011719 129.179688 L 184.203125 129.179688 C 184.683594 129.179688 185.074219 128.789062 185.074219 128.308594 Z M 179.375 142.253906 C 179.375 141.773438 178.984375 141.382812 178.503906 141.382812 L 175.4375 141.382812 C 174.957031 141.382812 174.566406 141.773438 174.566406 142.253906 C 174.566406 142.734375 174.957031 143.125 175.4375 143.125 L 178.503906 143.125 C 178.988281 143.125 179.375 142.734375 179.375 142.253906 Z M 254.800781 172.761719 L 237.316406 172.761719 C 236.835938 172.761719 236.445312 172.371094 236.445312 171.890625 C 236.445312 171.410156 236.835938 171.019531 237.316406 171.019531 L 254.800781 171.019531 C 255.28125 171.019531 255.671875 171.410156 255.671875 171.890625 C 255.671875 172.371094 255.28125 172.761719 254.800781 172.761719 Z M 260.695312 171.890625 C 260.695312 171.410156 260.304688 171.019531 259.824219 171.019531 L 257.300781 171.019531 C 256.820312 171.019531 256.429688 171.410156 256.429688 171.890625 C 256.429688 172.371094 256.820312 172.761719 257.300781 172.761719 L 259.824219 172.761719 C 260.304688 172.761719 260.695312 172.371094 260.695312 171.890625 Z M 267.761719 171.890625 C 267.761719 171.410156 267.371094 171.019531 266.890625 171.019531 L 262.453125 171.019531 C 261.972656 171.019531 261.582031 171.410156 261.582031 171.890625 C 261.582031 172.371094 261.972656 172.761719 262.453125 172.761719 L 266.890625 172.761719 C 267.371094 172.761719 267.761719 172.371094 267.761719 171.890625 Z M 264.230469 164.917969 C 264.230469 164.4375 263.839844 164.046875 263.359375 164.046875 L 246.597656 164.046875 C 246.117188 164.046875 245.726562 164.4375 245.726562 164.917969 C 245.726562 165.398438 246.117188 165.789062 246.597656 165.789062 L 263.359375 165.789062 C 263.839844 165.789062 264.230469 165.398438 264.230469 164.917969 Z M 244.449219 164.917969 C 244.449219 164.4375 244.058594 164.046875 243.578125 164.046875 L 242.566406 164.046875 C 242.085938 164.046875 241.695312 164.4375 241.695312 164.917969 C 241.695312 165.398438 242.085938 165.789062 242.566406 165.789062 L 243.578125 165.789062 C 244.058594 165.789062 244.449219 165.398438 244.449219 164.917969 Z M 240.304688 164.917969 C 240.304688 164.4375 239.914062 164.046875 239.433594 164.046875 L 236.894531 164.046875 C 236.414062 164.046875 236.023438 164.4375 236.023438 164.917969 C 236.023438 165.398438 236.414062 165.789062 236.894531 165.789062 L 239.433594 165.789062 C 239.917969 165.789062 240.304688 165.398438 240.304688 164.917969 Z M 259.761719 168.402344 C 259.761719 167.921875 259.371094 167.53125 258.890625 167.53125 L 250.128906 167.53125 C 249.648438 167.53125 249.257812 167.921875 249.257812 168.402344 C 249.257812 168.882812 249.648438 169.273438 250.128906 169.273438 L 258.890625 169.273438 C 259.371094 169.273438 259.761719 168.882812 259.761719 168.402344 Z M 259.761719 164.917969 C 259.761719 164.4375 259.371094 164.046875 258.890625 164.046875 L 256.699219 164.046875 C 256.21875 164.046875 255.828125 164.4375 255.828125 164.917969 C 255.828125 165.398438 256.21875 165.789062 256.699219 165.789062 L 258.890625 165.789062 C 259.371094 165.789062 259.761719 165.398438 259.761719 164.917969 Z M 248.460938 168.402344 C 248.460938 167.921875 248.070312 167.53125 247.589844 167.53125 L 244.527344 167.53125 C 244.042969 167.53125 243.652344 167.921875 243.652344 168.402344 C 243.652344 168.882812 244.042969 169.273438 244.527344 169.273438 L 247.589844 169.273438 C 248.074219 169.273438 248.460938 168.882812 248.460938 168.402344 Z M 248.460938 168.402344 " fill-opacity="1" fill-rule="nonzero"/><path fill="#fdfcef" d="M 241.609375 143.625 C 244.894531 143.625 247.742188 143.625 247.78125 143.625 C 251.460938 143.625 254.441406 140.707031 254.441406 137.109375 C 254.441406 133.96875 252.171875 131.347656 249.152344 130.730469 C 249.1875 130.453125 249.210938 130.175781 249.210938 129.890625 C 249.210938 126.164062 246.121094 123.140625 242.3125 123.140625 C 240.066406 123.140625 238.070312 124.199219 236.8125 125.828125 C 236.492188 121.679688 232.703125 118.476562 228.273438 119.007812 C 225.03125 119.398438 222.351562 121.847656 221.753906 124.988281 C 221.5625 125.996094 221.582031 126.976562 221.773438 127.890625 C 220.90625 126.976562 219.667969 126.398438 218.289062 126.398438 C 215.769531 126.398438 213.710938 128.320312 213.546875 130.746094 C 212.402344 130.5 211.15625 130.515625 209.847656 130.996094 C 207.339844 131.917969 205.554688 134.226562 205.449219 136.847656 C 205.300781 140.566406 208.339844 143.625 212.105469 143.625 C 212.390625 143.625 213.398438 143.625 213.628906 143.625 L 227.460938 143.625 M 230.320312 143.625 L 230.949219 143.625 " fill-opacity="1" fill-rule="nonzero"/><path fill="#472b29" d="M 247.78125 144.5 L 241.609375 144.5 C 241.128906 144.5 240.738281 144.109375 240.738281 143.628906 C 240.738281 143.148438 241.128906 142.757812 241.609375 142.757812 L 247.78125 142.757812 C 250.972656 142.757812 253.570312 140.222656 253.570312 137.109375 C 253.570312 134.453125 251.640625 132.128906 248.976562 131.585938 C 248.53125 131.492188 248.226562 131.070312 248.285156 130.617188 C 248.316406 130.378906 248.339844 130.140625 248.339844 129.890625 C 248.339844 126.648438 245.632812 124.011719 242.3125 124.011719 C 240.40625 124.011719 238.65625 124.867188 237.5 126.363281 C 237.28125 126.648438 236.90625 126.765625 236.5625 126.667969 C 236.214844 126.5625 235.96875 126.257812 235.941406 125.898438 C 235.804688 124.121094 234.957031 122.511719 233.554688 121.359375 C 232.109375 120.175781 230.269531 119.652344 228.371094 119.875 C 225.503906 120.21875 223.132812 122.386719 222.609375 125.148438 C 222.445312 126.011719 222.449219 126.875 222.625 127.714844 C 222.703125 128.097656 222.519531 128.484375 222.171875 128.667969 C 221.832031 128.84375 221.40625 128.777344 221.136719 128.492188 C 220.390625 127.707031 219.378906 127.273438 218.289062 127.273438 C 216.25 127.273438 214.546875 128.824219 214.417969 130.804688 C 214.398438 131.058594 214.273438 131.289062 214.070312 131.441406 C 213.867188 131.59375 213.609375 131.652344 213.363281 131.597656 C 212.25 131.359375 211.195312 131.425781 210.144531 131.816406 C 207.945312 132.625 206.40625 134.660156 206.320312 136.878906 C 206.257812 138.40625 206.8125 139.859375 207.878906 140.96875 C 208.984375 142.121094 210.488281 142.753906 212.101562 142.753906 L 227.457031 142.753906 C 227.9375 142.753906 228.328125 143.144531 228.328125 143.625 C 228.328125 144.109375 227.9375 144.5 227.457031 144.5 L 212.101562 144.5 C 210.039062 144.5 208.039062 143.652344 206.621094 142.179688 C 205.222656 140.722656 204.496094 138.816406 204.578125 136.8125 C 204.695312 133.890625 206.691406 131.226562 209.542969 130.175781 C 210.605469 129.785156 211.707031 129.648438 212.820312 129.753906 C 213.421875 127.320312 215.660156 125.527344 218.285156 125.527344 C 219.144531 125.527344 219.988281 125.722656 220.75 126.089844 C 220.765625 125.667969 220.816406 125.246094 220.894531 124.824219 C 221.558594 121.320312 224.550781 118.574219 228.164062 118.140625 C 230.542969 117.847656 232.847656 118.519531 234.660156 120.007812 C 235.964844 121.078125 236.886719 122.464844 237.355469 124.019531 C 238.734375 122.890625 240.46875 122.265625 242.308594 122.265625 C 246.59375 122.265625 250.078125 125.683594 250.078125 129.886719 C 250.078125 129.949219 250.078125 130.007812 250.078125 130.066406 C 253.152344 131.035156 255.3125 133.882812 255.3125 137.105469 C 255.316406 141.183594 251.9375 144.5 247.78125 144.5 Z M 230.949219 144.5 L 230.320312 144.5 C 229.839844 144.5 229.449219 144.109375 229.449219 143.628906 C 229.449219 143.148438 229.839844 142.757812 230.320312 142.757812 L 230.949219 142.757812 C 231.429688 142.757812 231.820312 143.148438 231.820312 143.628906 C 231.820312 144.109375 231.429688 144.5 230.949219 144.5 Z M 230.949219 144.5 " fill-opacity="1" fill-rule="nonzero"/><path fill="#472b29" d="M 244.804688 134.382812 C 244.773438 134.382812 244.742188 134.378906 244.710938 134.371094 C 244.476562 134.320312 244.328125 134.085938 244.382812 133.851562 C 244.445312 133.566406 244.542969 133.285156 244.675781 133.015625 C 245.730469 130.882812 248.636719 130.09375 251.164062 131.261719 C 251.382812 131.363281 251.480469 131.621094 251.378906 131.835938 C 251.277344 132.058594 251.015625 132.148438 250.800781 132.050781 C 248.707031 131.082031 246.308594 131.6875 245.460938 133.398438 C 245.359375 133.605469 245.28125 133.820312 245.234375 134.039062 C 245.1875 134.246094 245.007812 134.382812 244.804688 134.382812 Z M 235.8125 144.5 L 233.882812 144.5 C 233.402344 144.5 233.011719 144.109375 233.011719 143.628906 C 233.011719 143.148438 233.402344 142.757812 233.882812 142.757812 L 235.8125 142.757812 C 236.292969 142.757812 236.683594 143.148438 236.683594 143.628906 C 236.683594 144.109375 236.296875 144.5 235.8125 144.5 Z M 235.8125 144.5 " fill-opacity="1" fill-rule="nonzero"/><path fill="#fdfcee" d="M 192.582031 190.628906 L 150.480469 190.628906 C 145.421875 190.628906 141.28125 186.371094 141.28125 181.171875 L 141.28125 162.539062 C 141.28125 157.335938 145.421875 153.078125 150.480469 153.078125 L 229.097656 153.078125 " fill-opacity="1" fill-rule="nonzero"/><path fill="#472b29" d="M 192.582031 191.851562 L 150.480469 191.851562 C 144.738281 191.851562 140.0625 187.058594 140.0625 181.171875 L 140.0625 162.539062 C 140.0625 156.648438 144.738281 151.855469 150.480469 151.855469 L 229.097656 151.855469 C 229.773438 151.855469 230.316406 152.402344 230.316406 153.078125 C 230.316406 153.75 229.773438 154.296875 229.097656 154.296875 L 150.480469 154.296875 C 146.082031 154.296875 142.503906 157.992188 142.503906 162.539062 L 142.503906 181.171875 C 142.503906 185.710938 146.082031 189.410156 150.480469 189.410156 L 192.582031 189.410156 C 193.253906 189.410156 193.800781 189.957031 193.800781 190.628906 C 193.800781 191.304688 193.253906 191.851562 192.582031 191.851562 Z M 192.582031 191.851562 " fill-opacity="1" fill-rule="nonzero"/><path fill="#8f9eb6" d="M 218.144531 166.53125 L 247.582031 194.007812 L 233.355469 195.230469 L 241.449219 213.136719 L 236.054688 215.589844 L 228.207031 197.4375 L 218.148438 207.007812 L 218.148438 166.53125 Z M 218.144531 166.53125 " fill-opacity="1" fill-rule="nonzero"/><path fill="#472b29" d="M 236.054688 216.8125 C 235.90625 216.8125 235.753906 216.785156 235.613281 216.730469 C 235.308594 216.613281 235.0625 216.378906 234.933594 216.074219 L 227.777344 199.527344 L 218.988281 207.890625 C 218.632812 208.230469 218.113281 208.320312 217.667969 208.128906 C 217.21875 207.9375 216.929688 207.496094 216.929688 207.007812 L 216.929688 166.53125 C 216.929688 166.046875 217.214844 165.605469 217.660156 165.414062 C 218.105469 165.21875 218.621094 165.308594 218.976562 165.640625 L 248.414062 193.113281 C 248.765625 193.441406 248.890625 193.949219 248.734375 194.402344 C 248.578125 194.859375 248.167969 195.179688 247.6875 195.222656 L 235.175781 196.300781 L 242.5625 212.636719 C 242.839844 213.25 242.566406 213.972656 241.953125 214.25 L 236.558594 216.703125 C 236.398438 216.773438 236.226562 216.8125 236.054688 216.8125 Z M 228.207031 196.21875 C 228.285156 196.21875 228.367188 196.226562 228.449219 196.246094 C 228.839844 196.324219 229.167969 196.589844 229.328125 196.957031 L 236.679688 213.964844 L 239.835938 212.535156 L 232.246094 195.734375 C 232.082031 195.375 232.101562 194.957031 232.304688 194.617188 C 232.503906 194.273438 232.855469 194.050781 233.253906 194.015625 L 244.746094 193.023438 L 219.367188 169.339844 L 219.367188 204.164062 L 227.363281 196.558594 C 227.59375 196.335938 227.894531 196.21875 228.207031 196.21875 Z M 228.207031 196.21875 " fill-opacity="1" fill-rule="nonzero"/><path fill="#1f212b" d="M 152.867188 165.671875 L 152.867188 170.636719 C 153.664062 169.605469 154.640625 169.296875 155.65625 169.296875 C 158.195312 169.296875 159.320312 171.019531 159.320312 173.648438 L 159.320312 178.359375 L 157.105469 178.359375 L 157.105469 173.664062 C 157.105469 172.03125 156.257812 171.34375 155.078125 171.34375 C 153.773438 171.34375 152.863281 172.453125 152.863281 173.792969 L 152.863281 178.359375 L 150.652344 178.359375 L 150.652344 165.671875 Z M 152.867188 165.671875 " fill-opacity="1" fill-rule="nonzero"/><path fill="#1f212b" d="M 164.589844 166.90625 L 164.589844 169.445312 L 167.054688 169.445312 L 167.054688 171.347656 L 164.570312 171.347656 L 164.570312 175.207031 C 164.570312 176.058594 165.042969 176.476562 165.730469 176.476562 C 166.078125 176.476562 166.472656 176.363281 166.800781 176.203125 L 167.414062 178.089844 C 166.78125 178.34375 166.253906 178.453125 165.585938 178.46875 C 163.644531 178.542969 162.375 177.433594 162.375 175.207031 L 162.375 171.34375 L 160.707031 171.34375 L 160.707031 169.441406 L 162.375 169.441406 L 162.375 167.140625 Z M 164.589844 166.90625 " fill-opacity="1" fill-rule="nonzero"/><path fill="#1f212b" d="M 171.746094 166.90625 L 171.746094 169.445312 L 174.210938 169.445312 L 174.210938 171.347656 L 171.726562 171.347656 L 171.726562 175.207031 C 171.726562 176.058594 172.199219 176.476562 172.890625 176.476562 C 173.234375 176.476562 173.632812 176.363281 173.957031 176.203125 L 174.574219 178.089844 C 173.9375 178.34375 173.410156 178.453125 172.742188 178.46875 C 170.804688 178.542969 169.53125 177.433594 169.53125 175.207031 L 169.53125 171.34375 L 167.867188 171.34375 L 167.867188 169.441406 L 169.53125 169.441406 L 169.53125 167.140625 Z M 171.746094 166.90625 " fill-opacity="1" fill-rule="nonzero"/><path fill="#1f212b" d="M 176.074219 182.09375 L 176.074219 169.425781 L 178.140625 169.425781 L 178.285156 170.65625 C 178.972656 169.660156 180.171875 169.222656 181.1875 169.222656 C 183.941406 169.222656 185.773438 171.273438 185.773438 173.902344 C 185.773438 176.511719 184.125 178.578125 181.261719 178.578125 C 180.316406 178.578125 178.921875 178.289062 178.289062 177.308594 L 178.289062 182.09375 Z M 183.5625 173.902344 C 183.5625 172.503906 182.617188 171.363281 181.023438 171.363281 C 179.425781 171.363281 178.484375 172.503906 178.484375 173.902344 C 178.484375 175.296875 179.519531 176.441406 181.023438 176.441406 C 182.527344 176.441406 183.5625 175.296875 183.5625 173.902344 Z M 183.5625 173.902344 " fill-opacity="1" fill-rule="nonzero"/><path fill="#1f212b" d="M 189.628906 171.964844 C 189.628906 173.648438 187.054688 173.648438 187.054688 171.964844 C 187.054688 170.261719 189.628906 170.261719 189.628906 171.964844 Z M 189.628906 177.21875 C 189.628906 178.90625 187.054688 178.90625 187.054688 177.21875 C 187.054688 175.515625 189.628906 175.515625 189.628906 177.21875 Z M 189.628906 177.21875 " fill-opacity="1" fill-rule="nonzero"/><path fill="#1f212b" d="M 198.757812 164.191406 L 192.578125 179.878906 L 190.230469 179.878906 L 196.390625 164.191406 Z M 198.757812 164.191406 " fill-opacity="1" fill-rule="nonzero"/><path fill="#1f212b" d="M 207 164.191406 L 200.820312 179.878906 L 198.472656 179.878906 L 204.632812 164.191406 Z M 207 164.191406 " fill-opacity="1" fill-rule="nonzero"/><path fill="#472b29" d="M 221.746094 176.882812 C 221.410156 176.882812 221.089844 176.6875 220.945312 176.359375 L 217.132812 167.644531 C 216.9375 167.203125 217.140625 166.6875 217.582031 166.496094 C 218.019531 166.308594 218.539062 166.503906 218.730469 166.945312 L 222.542969 175.664062 C 222.738281 176.101562 222.535156 176.617188 222.09375 176.808594 C 221.980469 176.859375 221.863281 176.882812 221.746094 176.882812 Z M 221.746094 176.882812 " fill-opacity="1" fill-rule="nonzero"/><path fill="#472b29" d="M 225.011719 183.746094 C 224.683594 183.746094 224.363281 183.558594 224.21875 183.234375 L 222.640625 179.75 C 222.441406 179.3125 222.636719 178.792969 223.074219 178.597656 C 223.511719 178.398438 224.027344 178.59375 224.226562 179.03125 L 225.808594 182.515625 C 226.003906 182.953125 225.808594 183.472656 225.371094 183.667969 C 225.253906 183.722656 225.132812 183.746094 225.011719 183.746094 Z M 225.011719 183.746094 " fill-opacity="1" fill-rule="nonzero"/><g fill="#434336" fill-opacity="1"><g transform="translate(137.667632, 96.571135)"><g><path d="M 5.9375 -2.609375 C 4.914062 -2.117188 3.90625 -1.925781 2.90625 -2.03125 C 1.914062 -2.132812 1.003906 -2.507812 0.171875 -3.15625 C -0.660156 -3.800781 -1.34375 -4.675781 -1.875 -5.78125 C -2.40625 -6.894531 -2.65625 -7.984375 -2.625 -9.046875 C -2.601562 -10.109375 -2.3125 -11.066406 -1.75 -11.921875 C -1.1875 -12.773438 -0.363281 -13.460938 0.71875 -13.984375 C 1.945312 -14.566406 3.109375 -14.753906 4.203125 -14.546875 C 5.304688 -14.347656 6.226562 -13.789062 6.96875 -12.875 L 5.4375 -12.15625 C 4.988281 -12.726562 4.398438 -13.078125 3.671875 -13.203125 C 2.941406 -13.328125 2.148438 -13.1875 1.296875 -12.78125 C 0.492188 -12.394531 -0.113281 -11.882812 -0.53125 -11.25 C -0.945312 -10.613281 -1.160156 -9.878906 -1.171875 -9.046875 C -1.179688 -8.222656 -0.96875 -7.347656 -0.53125 -6.421875 C -0.0820312 -5.503906 0.457031 -4.789062 1.09375 -4.28125 C 1.738281 -3.769531 2.429688 -3.472656 3.171875 -3.390625 C 3.910156 -3.304688 4.660156 -3.441406 5.421875 -3.796875 C 6.585938 -4.359375 7.300781 -5.117188 7.5625 -6.078125 C 7.832031 -7.046875 7.726562 -8.144531 7.25 -9.375 L 4.09375 -7.875 L 3.59375 -8.890625 L 8.078125 -11.03125 L 10.875 -5.203125 L 9.6875 -4.640625 L 8.703125 -6.375 C 8.617188 -5.550781 8.375 -4.828125 7.96875 -4.203125 C 7.5625 -3.585938 6.882812 -3.054688 5.9375 -2.609375 Z M 5.9375 -2.609375 "/></g></g></g><g fill="#434336" fill-opacity="1"><g transform="translate(156.185437, 88.480051)"><g><path d="M 4.953125 -1.234375 C 4.179688 -1.015625 3.429688 -0.988281 2.703125 -1.15625 C 1.984375 -1.332031 1.347656 -1.691406 0.796875 -2.234375 C 0.253906 -2.773438 -0.144531 -3.476562 -0.40625 -4.34375 C -0.65625 -5.226562 -0.691406 -6.039062 -0.515625 -6.78125 C -0.335938 -7.53125 0.0078125 -8.175781 0.53125 -8.71875 C 1.050781 -9.257812 1.695312 -9.644531 2.46875 -9.875 C 3.25 -10.101562 4 -10.125 4.71875 -9.9375 C 5.445312 -9.757812 6.082031 -9.398438 6.625 -8.859375 C 7.175781 -8.328125 7.578125 -7.617188 7.828125 -6.734375 C 8.085938 -5.867188 8.128906 -5.0625 7.953125 -4.3125 C 7.773438 -3.5625 7.425781 -2.914062 6.90625 -2.375 C 6.382812 -1.84375 5.734375 -1.460938 4.953125 -1.234375 Z M 4.609375 -2.40625 C 5.085938 -2.550781 5.492188 -2.800781 5.828125 -3.15625 C 6.171875 -3.507812 6.398438 -3.957031 6.515625 -4.5 C 6.640625 -5.039062 6.601562 -5.648438 6.40625 -6.328125 C 6.207031 -7.015625 5.914062 -7.554688 5.53125 -7.953125 C 5.144531 -8.347656 4.710938 -8.597656 4.234375 -8.703125 C 3.753906 -8.816406 3.28125 -8.804688 2.8125 -8.671875 C 2.34375 -8.535156 1.9375 -8.289062 1.59375 -7.9375 C 1.25 -7.59375 1.015625 -7.144531 0.890625 -6.59375 C 0.773438 -6.050781 0.816406 -5.4375 1.015625 -4.75 C 1.210938 -4.070312 1.503906 -3.535156 1.890625 -3.140625 C 2.285156 -2.753906 2.722656 -2.5 3.203125 -2.375 C 3.679688 -2.257812 4.148438 -2.269531 4.609375 -2.40625 Z M 4.609375 -2.40625 "/></g></g></g><g fill="#434336" fill-opacity="1"><g transform="translate(173.058036, 84.128739)"><g><path d="M 5.078125 -0.46875 C 4.285156 -0.363281 3.539062 -0.453125 2.84375 -0.734375 C 2.15625 -1.015625 1.582031 -1.460938 1.125 -2.078125 C 0.664062 -2.691406 0.378906 -3.453125 0.265625 -4.359375 C 0.140625 -5.265625 0.21875 -6.078125 0.5 -6.796875 C 0.789062 -7.515625 1.234375 -8.097656 1.828125 -8.546875 C 2.429688 -8.992188 3.128906 -9.269531 3.921875 -9.375 C 4.722656 -9.488281 5.46875 -9.40625 6.15625 -9.125 C 6.84375 -8.84375 7.414062 -8.394531 7.875 -7.78125 C 8.34375 -7.164062 8.640625 -6.40625 8.765625 -5.5 C 8.878906 -4.59375 8.789062 -3.78125 8.5 -3.0625 C 8.207031 -2.34375 7.765625 -1.753906 7.171875 -1.296875 C 6.578125 -0.847656 5.878906 -0.570312 5.078125 -0.46875 Z M 4.90625 -1.6875 C 5.40625 -1.75 5.847656 -1.929688 6.234375 -2.234375 C 6.628906 -2.535156 6.925781 -2.941406 7.125 -3.453125 C 7.332031 -3.972656 7.390625 -4.585938 7.296875 -5.296875 C 7.203125 -6.003906 6.988281 -6.578125 6.65625 -7.015625 C 6.332031 -7.460938 5.941406 -7.78125 5.484375 -7.96875 C 5.035156 -8.15625 4.566406 -8.210938 4.078125 -8.140625 C 3.597656 -8.078125 3.160156 -7.894531 2.765625 -7.59375 C 2.367188 -7.300781 2.070312 -6.898438 1.875 -6.390625 C 1.6875 -5.878906 1.640625 -5.269531 1.734375 -4.5625 C 1.828125 -3.851562 2.035156 -3.273438 2.359375 -2.828125 C 2.679688 -2.378906 3.066406 -2.0625 3.515625 -1.875 C 3.972656 -1.6875 4.4375 -1.625 4.90625 -1.6875 Z M 4.90625 -1.6875 "/></g></g></g><g fill="#434336" fill-opacity="1"><g transform="translate(190.379855, 82.352287)"><g><path d="M 5.078125 0.3125 C 4.222656 0.289062 3.476562 0.0820312 2.84375 -0.3125 C 2.21875 -0.71875 1.734375 -1.265625 1.390625 -1.953125 C 1.054688 -2.640625 0.898438 -3.414062 0.921875 -4.28125 C 0.941406 -5.144531 1.132812 -5.910156 1.5 -6.578125 C 1.875 -7.242188 2.378906 -7.765625 3.015625 -8.140625 C 3.660156 -8.515625 4.414062 -8.691406 5.28125 -8.671875 C 5.988281 -8.660156 6.609375 -8.503906 7.140625 -8.203125 C 7.679688 -7.898438 8.09375 -7.488281 8.375 -6.96875 L 8.484375 -12.265625 L 9.9375 -12.234375 L 9.671875 0.203125 L 8.359375 0.171875 L 8.25 -1.25 C 7.96875 -0.832031 7.5625 -0.460938 7.03125 -0.140625 C 6.507812 0.171875 5.859375 0.320312 5.078125 0.3125 Z M 5.25 -0.9375 C 5.820312 -0.925781 6.335938 -1.050781 6.796875 -1.3125 C 7.253906 -1.570312 7.609375 -1.941406 7.859375 -2.421875 C 8.109375 -2.898438 8.242188 -3.460938 8.265625 -4.109375 C 8.273438 -4.753906 8.160156 -5.320312 7.921875 -5.8125 C 7.691406 -6.300781 7.351562 -6.6875 6.90625 -6.96875 C 6.46875 -7.25 5.960938 -7.394531 5.390625 -7.40625 C 4.828125 -7.414062 4.320312 -7.289062 3.875 -7.03125 C 3.425781 -6.769531 3.070312 -6.398438 2.8125 -5.921875 C 2.550781 -5.441406 2.414062 -4.878906 2.40625 -4.234375 C 2.382812 -3.585938 2.492188 -3.019531 2.734375 -2.53125 C 2.984375 -2.039062 3.320312 -1.65625 3.75 -1.375 C 4.1875 -1.09375 4.6875 -0.945312 5.25 -0.9375 Z M 5.25 -0.9375 "/></g></g></g><g fill="#434336" fill-opacity="1"><g transform="translate(208.397927, 83.323661)"><g><path d="M 1.4375 4.09375 L 4.328125 -0.078125 L 3.828125 -0.171875 L 1.8125 -8.390625 L 3.359375 -8.125 L 5.015625 -1.0625 L 9.125 -7.125 L 10.59375 -6.859375 L 2.9375 4.359375 Z M 1.4375 4.09375 "/></g></g></g><g fill="#434336" fill-opacity="1"><g transform="translate(224.885651, 86.734752)"><g><path d="M 1.21875 0.40625 L 4.984375 -11.09375 L 11.984375 -8.8125 L 11.609375 -7.671875 L 5.984375 -9.515625 L 4.671875 -5.484375 L 9.453125 -3.90625 L 9.078125 -2.796875 L 4.296875 -4.375 L 2.59375 0.84375 Z M 1.21875 0.40625 "/></g></g></g><g fill="#434336" fill-opacity="1"><g transform="translate(240.360472, 92.338156)"><g><path d="M 0.21875 4.34375 L 4.1875 1.15625 L 3.734375 0.9375 L 4.125 -7.53125 L 5.53125 -6.828125 L 5.09375 0.40625 L 10.765625 -4.234375 L 12.109375 -3.5625 L 1.578125 5.03125 Z M 0.21875 4.34375 "/></g></g></g></svg>