<?xml version="1.0" encoding="utf-8"?>
<!-- Generator: Adobe Illustrator 27.4.0, SVG Export Plug-In . SVG Version: 6.00 Build 0)  -->
<svg version="1.1" xmlns="http://www.w3.org/2000/svg" xmlns:xlink="http://www.w3.org/1999/xlink" x="0px" y="0px"
	 viewBox="0 0 250 250" style="enable-background:new 0 0 250 250;" xml:space="preserve">
<style type="text/css">
	.st0{opacity:0.35;fill:#E7A184;}
	.st1{fill:#FFFFFF;stroke:#000000;stroke-miterlimit:10;}
	.st2{opacity:0.57;fill:#B2C9E1;stroke:#000000;stroke-miterlimit:10;}
	.st3{fill:#B2C9E1;stroke:#000000;stroke-width:0.15;stroke-miterlimit:10;}
	.st4{fill:none;stroke:#FFFFFF;stroke-width:0.75;stroke-linecap:round;stroke-miterlimit:10;}
	.st5{fill:none;stroke:#FFFFFF;stroke-width:0.5;stroke-linecap:round;stroke-miterlimit:10;}
	.st6{opacity:0.8;}
	.st7{fill:#52667D;stroke:#000000;stroke-miterlimit:10;}
	.st8{fill:#C2C9D0;stroke:#000000;stroke-miterlimit:10;}
	.st9{fill:#B2C9E1;stroke:#000000;stroke-miterlimit:10;}
	.st10{opacity:0.8;fill:#52667D;stroke:#000000;stroke-miterlimit:10;}
	.st11{opacity:0.8;fill:#C2C9D0;stroke:#000000;stroke-miterlimit:10;}
	.st12{opacity:0.8;fill:#B2C9E1;stroke:#000000;stroke-miterlimit:10;}
	.st13{fill:#27BDBE;stroke:#000000;stroke-miterlimit:10;}
	.st14{fill:#B2C9E0;stroke:#000000;stroke-miterlimit:10;}
	.st15{fill:none;stroke:#000000;stroke-miterlimit:10;}
</style>
<g id="Layer_2">
	<path class="st0" d="M199.8,28.48c17.53,5.95,33.18,19.25,38.34,36.15c5.01,16.74-0.47,37.09,2.03,58.68
		c2.35,21.6,12.83,44.75,5.01,56.96c-7.67,12.21-33.49,13.61-53.52,22.53c-19.87,9.08-34.11,25.51-50.86,30.2
		c-16.9,4.69-36.46-2.35-58.53-10.02c-22.06-7.82-46.79-16.12-62.44-33.18C4.2,172.92-2.53,147.41,5.14,126.44
		c7.82-21.13,30.05-37.71,44.13-57.43S69.29,26.6,83.69,18.94c14.24-7.82,37.09-0.31,58.06,2.5
		C162.87,24.41,182.28,22.69,199.8,28.48z"/>
</g>
<g id="Layer_3">
	<rect x="24.3" y="71.58" class="st1" width="201.37" height="116.44"/>
</g>
<g id="Layer_1">
	<path class="st2" d="M90.71,174.04H27.53c-0.67,0-1.21-0.54-1.21-1.21v-68.57c0-0.67,0.54-1.21,1.21-1.21h63.18
		c0.67,0,1.21,0.54,1.21,1.21v68.57C91.92,173.5,91.38,174.04,90.71,174.04z"/>
	<circle class="st3" cx="70.59" cy="126.6" r="11.65"/>
	<path class="st4" d="M74.35,118.15c0.81,0.4,2.5,1.37,3.82,3.34c1.13,1.68,1.47,3.31,1.59,4.19"/>
	<circle class="st3" cx="61.6" cy="138.25" r="8.62"/>
	<path class="st4" d="M64.38,132c0.6,0.3,1.85,1.02,2.82,2.47c0.83,1.24,1.09,2.45,1.17,3.1"/>
	<circle class="st3" cx="41.87" cy="127.06" r="5.87"/>
	<path class="st4" d="M43.76,122.8c0.41,0.2,1.26,0.69,1.92,1.68c0.57,0.85,0.74,1.67,0.8,2.11"/>
	<circle class="st3" cx="63.16" cy="154.26" r="4.64"/>
	<path class="st4" d="M64.52,151.09c0.32,0.16,0.99,0.55,1.52,1.33c0.45,0.67,0.58,1.32,0.63,1.67"/>
	<circle class="st3" cx="48.99" cy="159.28" r="2.87"/>
	<path class="st5" d="M49.83,157.32c0.2,0.1,0.61,0.34,0.94,0.82c0.28,0.41,0.36,0.81,0.39,1.03"/>
	<g class="st6">
		<path class="st7" d="M160.4,128.43v-9.98c0-0.41,0.36-0.74,0.81-0.74h28.72c0.44,0,0.81,0.33,0.81,0.74v26.3
			c0,0.41-0.36,0.74-0.81,0.74H161.2c-0.44,0-0.81-0.33-0.81-0.74V128.43"/>
		<g>
			<path class="st7" d="M161.2,145.49h28.72c0.44,0,0.81,0.36,0.81,0.81v2.69c0,0.44-0.36,0.81-0.81,0.81H161.2
				c-0.44,0-0.81-0.36-0.81-0.81v-2.69C160.4,145.85,160.76,145.49,161.2,145.49z"/>
			<path class="st7" d="M161.2,112.07h28.72c0.44,0,0.81,0.36,0.81,0.81v4.03c0,0.44-0.36,0.81-0.81,0.81H161.2
				c-0.44,0-0.81-0.36-0.81-0.81v-4.03C160.4,112.43,160.76,112.07,161.2,112.07z"/>
			<path class="st8" d="M175.57,118.56L175.57,118.56c6.7,0,12.13,5.43,12.13,12.13v0c0,6.7-5.43,12.13-12.13,12.13h0
				c-6.7,0-12.13-5.43-12.13-12.13v0C163.44,123.99,168.87,118.56,175.57,118.56z"/>
			<circle class="st9" cx="175.57" cy="130.69" r="8.86"/>
			<path class="st8" d="M179.29,148.95h-7.45c-0.34,0-0.61-0.27-0.61-0.61v-1.22c0-0.34,0.27-0.61,0.61-0.61h7.45
				c0.34,0,0.61,0.27,0.61,0.61v1.22C179.9,148.67,179.63,148.95,179.29,148.95z"/>
		</g>
	</g>
	<path class="st10" d="M190.73,172.16v9.98c0,0.41-0.36,0.74-0.81,0.74H161.2c-0.44,0-0.81-0.33-0.81-0.74v-26.3
		c0-0.41,0.36-0.74,0.81-0.74h28.72c0.44,0,0.81,0.33,0.81,0.74V172.16"/>
	<path class="st10" d="M189.93,155.09H161.2c-0.44,0-0.81-0.36-0.81-0.81v-2.69c0-0.44,0.36-0.81,0.81-0.81h28.72
		c0.44,0,0.81,0.36,0.81,0.81v2.69C190.73,154.73,190.37,155.09,189.93,155.09z"/>
	<path class="st10" d="M189.93,188.52H161.2c-0.44,0-0.81-0.36-0.81-0.81v-4.03c0-0.44,0.36-0.81,0.81-0.81h28.72
		c0.44,0,0.81,0.36,0.81,0.81v4.03C190.73,188.15,190.37,188.52,189.93,188.52z"/>
	<path class="st11" d="M175.57,180.26L175.57,180.26c-6.7,0-12.13-5.43-12.13-12.13v0c0-6.7,5.43-12.13,12.13-12.13h0
		c6.7,0,12.13,5.43,12.13,12.13v0C187.69,174.83,182.26,180.26,175.57,180.26z"/>
	<circle class="st12" cx="175.57" cy="168.13" r="8.86"/>
	<path class="st11" d="M171.84,151.64h7.45c0.34,0,0.61,0.27,0.61,0.61v1.22c0,0.34-0.27,0.61-0.61,0.61h-7.45
		c-0.34,0-0.61-0.27-0.61-0.61v-1.22C171.23,151.91,171.51,151.64,171.84,151.64z"/>
	<path class="st10" d="M222.13,172.16v9.98c0,0.41-0.36,0.74-0.81,0.74H192.6c-0.44,0-0.81-0.33-0.81-0.74v-26.3
		c0-0.41,0.36-0.74,0.81-0.74h28.72c0.44,0,0.81,0.33,0.81,0.74V172.16"/>
	<path class="st10" d="M221.32,155.09H192.6c-0.44,0-0.81-0.36-0.81-0.81v-2.69c0-0.44,0.36-0.81,0.81-0.81h28.72
		c0.44,0,0.81,0.36,0.81,0.81v2.69C222.13,154.73,221.77,155.09,221.32,155.09z"/>
	<path class="st10" d="M221.32,188.52H192.6c-0.44,0-0.81-0.36-0.81-0.81v-4.03c0-0.44,0.36-0.81,0.81-0.81h28.72
		c0.44,0,0.81,0.36,0.81,0.81v4.03C222.13,188.15,221.77,188.52,221.32,188.52z"/>
	<path class="st11" d="M203.24,151.64h7.45c0.34,0,0.61,0.27,0.61,0.61v1.22c0,0.34-0.27,0.61-0.61,0.61h-7.45
		c-0.34,0-0.61-0.27-0.61-0.61v-1.22C202.63,151.91,202.9,151.64,203.24,151.64z"/>
	<path class="st11" d="M206.96,180.26L206.96,180.26c-6.7,0-12.13-5.43-12.13-12.13v0c0-6.7,5.43-12.13,12.13-12.13h0
		c6.7,0,12.13,5.43,12.13,12.13v0C219.08,174.83,213.66,180.26,206.96,180.26z"/>
	<circle class="st12" cx="206.96" cy="168.13" r="8.86"/>
	<g class="st6">
		<path class="st7" d="M191.79,128.43v-9.98c0-0.41,0.36-0.74,0.81-0.74h28.72c0.44,0,0.81,0.33,0.81,0.74v26.3
			c0,0.41-0.36,0.74-0.81,0.74H192.6c-0.44,0-0.81-0.33-0.81-0.74V128.43"/>
		<g>
			<path class="st7" d="M192.6,145.49h28.72c0.44,0,0.81,0.36,0.81,0.81v2.69c0,0.44-0.36,0.81-0.81,0.81H192.6
				c-0.44,0-0.81-0.36-0.81-0.81v-2.69C191.79,145.85,192.15,145.49,192.6,145.49z"/>
			<path class="st7" d="M192.6,112.07h28.72c0.44,0,0.81,0.36,0.81,0.81v4.03c0,0.44-0.36,0.81-0.81,0.81H192.6
				c-0.44,0-0.81-0.36-0.81-0.81v-4.03C191.79,112.43,192.15,112.07,192.6,112.07z"/>
			<path class="st8" d="M206.96,118.56L206.96,118.56c6.7,0,12.13,5.43,12.13,12.13v0c0,6.7-5.43,12.13-12.13,12.13h0
				c-6.7,0-12.13-5.43-12.13-12.13v0C194.83,123.99,200.26,118.56,206.96,118.56z"/>
			<circle class="st9" cx="206.96" cy="130.69" r="8.86"/>
			<path class="st8" d="M210.68,148.95h-7.45c-0.34,0-0.61-0.27-0.61-0.61v-1.22c0-0.34,0.27-0.61,0.61-0.61h7.45
				c0.34,0,0.61,0.27,0.61,0.61v1.22C211.29,148.67,211.02,148.95,210.68,148.95z"/>
		</g>
	</g>
	<path class="st2" d="M160.01,174.04h-0.34c-0.67,0-1.21-0.54-1.21-1.21v-68.57c0-0.67,0.54-1.21,1.21-1.21h63.18
		c0.67,0,1.21,0.54,1.21,1.21v68.57c0,0.67-0.54,1.21-1.21,1.21H160.01"/>
	<rect x="22.31" y="64.55" class="st13" width="205.35" height="15.38"/>
	<path class="st13" d="M22.31,84.54V186H95.9v-82.94h58.18V186h73.58V84.54H22.31z M91.92,172.83c0,0.67-0.54,1.21-1.21,1.21H27.53
		c-0.67,0-1.21-0.54-1.21-1.21v-68.57c0-0.67,0.54-1.21,1.21-1.21h63.18c0.67,0,1.21,0.54,1.21,1.21V172.83z M224.06,172.83
		c0,0.67-0.54,1.21-1.21,1.21h-62.84h-0.34c-0.67,0-1.21-0.54-1.21-1.21v-68.57c0-0.67,0.54-1.21,1.21-1.21h63.18
		c0.67,0,1.21,0.54,1.21,1.21V172.83z"/>
	<rect x="18.9" y="186" class="st14" width="212.19" height="4.03"/>
	<rect x="97.03" y="104.16" class="st2" width="56.03" height="81.51"/>
	<line class="st15" x1="125" y1="104.96" x2="125" y2="184.86"/>
	<rect x="121.19" y="149.2" class="st2" width="1.56" height="9.77"/>
	<rect x="127.09" y="149.2" class="st2" width="1.56" height="9.77"/>
	<g>
		<g>
			<path class="st1" d="M29.01,102.11c-3.78,0-7.55,0-11.33,0c4.41-5.13,8.82-10.27,13.24-15.4c3.31,0,6.62,0,9.93,0
				C36.9,91.84,32.96,96.97,29.01,102.11z"/>
			<path class="st13" d="M40.37,102.11c-3.78,0-7.55,0-11.33,0c3.94-5.13,7.89-10.27,11.83-15.4c3.31,0,6.62,0,9.93,0
				C47.33,91.84,43.85,96.97,40.37,102.11z"/>
			<path class="st1" d="M51.44,102.11c-3.78,0-7.55,0-11.33,0c3.49-5.13,6.98-10.27,10.47-15.4c3.31,0,6.62,0,9.93,0
				C57.48,91.84,54.46,96.97,51.44,102.11z"/>
			<path class="st13" d="M62.8,102.11c-3.78,0-7.55,0-11.33,0c3.02-5.13,6.05-10.27,9.07-15.4c3.31,0,6.62,0,9.93,0
				C67.91,91.84,65.36,96.97,62.8,102.11z"/>
			<path class="st1" d="M74.19,102.11c-3.78,0-7.55,0-11.33,0c2.55-5.13,5.11-10.27,7.66-15.4c3.31,0,6.62,0,9.93,0
				C78.36,91.84,76.28,96.97,74.19,102.11z"/>
			<path class="st13" d="M85.55,102.11c-3.78,0-7.55,0-11.33,0c2.09-5.13,4.17-10.27,6.26-15.4c3.31,0,6.62,0,9.93,0
				C88.8,91.84,87.17,96.97,85.55,102.11z"/>
			<path class="st1" d="M96.61,102.11c-3.78,0-7.55,0-11.33,0c1.63-5.13,3.26-10.27,4.9-15.4c3.31,0,6.62,0,9.93,0
				C98.95,91.84,97.78,96.97,96.61,102.11z"/>
			<path class="st13" d="M107.98,102.11c-3.78,0-7.55,0-11.33,0c1.17-5.13,2.33-10.27,3.5-15.4c3.31,0,6.62,0,9.93,0
				C109.38,91.84,108.68,96.97,107.98,102.11z"/>
			<path class="st1" d="M119.3,102.11c-3.78,0-7.55,0-11.33,0c0.7-5.13,1.4-10.27,2.1-15.4c3.31,0,6.62,0,9.93,0
				C119.77,91.84,119.54,96.97,119.3,102.11z"/>
			<path class="st13" d="M130.67,102.11c-3.78,0-7.55,0-11.33,0c0.23-5.13,0.46-10.27,0.7-15.4c3.31,0,6.62,0,9.93,0
				C130.2,91.84,130.44,96.97,130.67,102.11z"/>
			<path class="st1" d="M141.73,102.11c-3.77,0-7.55,0-11.33,0c-0.22-5.13-0.45-10.27-0.67-15.4c3.31,0,6.62,0,9.93,0
				C140.35,91.84,141.04,96.97,141.73,102.11z"/>
			<path class="st13" d="M153.1,102.11c-3.78,0-7.55,0-11.33,0c-0.69-5.13-1.38-10.27-2.07-15.4c3.31,0,6.62,0,9.93,0
				C150.78,91.84,151.94,96.97,153.1,102.11z"/>
			<path class="st1" d="M164.48,102.11c-3.77,0-7.55,0-11.33,0c-1.16-5.13-2.32-10.27-3.48-15.4c3.31,0,6.62,0,9.93,0
				C161.23,91.84,162.86,96.97,164.48,102.11z"/>
			<path class="st13" d="M175.85,102.11c-3.78,0-7.55,0-11.33,0c-1.63-5.13-3.25-10.27-4.88-15.4c3.31,0,6.62,0,9.93,0
				C171.66,91.84,173.76,96.97,175.85,102.11z"/>
			<path class="st1" d="M186.91,102.11c-3.78,0-7.55,0-11.33,0c-2.08-5.13-4.16-10.27-6.24-15.4c3.31,0,6.62,0,9.93,0
				C181.82,91.84,184.36,96.97,186.91,102.11z"/>
			<path class="st13" d="M198.27,102.11c-3.78,0-7.55,0-11.33,0c-2.55-5.13-5.1-10.27-7.64-15.4c3.31,0,6.62,0,9.93,0
				C192.25,91.84,195.26,96.97,198.27,102.11z"/>
			<path class="st1" d="M209.6,102.11c-3.78,0-7.55,0-11.33,0c-3.01-5.13-6.03-10.27-9.04-15.4c3.31,0,6.62,0,9.93,0
				C202.64,91.84,206.12,96.97,209.6,102.11z"/>
			<path class="st1" d="M232.29,102.11c-3.78,0-7.55,0-11.33,0c-3.95-5.13-7.89-10.27-11.84-15.4c3.31,0,6.62,0,9.93,0
				C223.47,91.84,227.88,96.97,232.29,102.11z"/>
			<path class="st13" d="M220.96,102.11c-3.77,0-7.55,0-11.33,0c-3.48-5.13-6.96-10.27-10.44-15.4c3.31,0,6.62,0,9.93,0
				C213.07,91.84,217.02,96.97,220.96,102.11z"/>
		</g>
	</g>
	<rect x="18.89" y="79.93" class="st14" width="212.19" height="4.61"/>
	<path class="st1" d="M17.5,101.78c0,2.71,2.51,4.91,5.61,4.91h0c3.1,0,5.61-2.2,5.61-4.91v0L17.5,101.78L17.5,101.78z"/>
	<path class="st13" d="M28.82,101.78c0,2.71,2.51,4.91,5.61,4.91h0c3.1,0,5.61-2.2,5.61-4.91v0L28.82,101.78L28.82,101.78z"/>
	<path class="st1" d="M40.09,101.78c0,2.71,2.51,4.91,5.61,4.91h0c3.1,0,5.61-2.2,5.61-4.91v0L40.09,101.78L40.09,101.78z"/>
	<path class="st13" d="M51.36,101.95c0,2.71,2.51,4.91,5.61,4.91h0c3.1,0,5.61-2.2,5.61-4.91v0L51.36,101.95L51.36,101.95z"/>
	<path class="st1" d="M62.83,101.78c0,2.71,2.51,4.91,5.61,4.91h0c3.1,0,5.61-2.2,5.61-4.91v0L62.83,101.78L62.83,101.78z"/>
	<path class="st13" d="M73.89,101.78c0,2.71,2.51,4.91,5.61,4.91h0c3.1,0,5.61-2.2,5.61-4.91v0L73.89,101.78L73.89,101.78z"/>
	<path class="st1" d="M85.32,101.96c0,2.71,2.51,4.91,5.61,4.91h0c3.1,0,5.61-2.2,5.61-4.91v0L85.32,101.96L85.32,101.96z"/>
	<path class="st13" d="M96.53,101.95c0,2.71,2.51,4.91,5.61,4.91h0c3.1,0,5.61-2.2,5.61-4.91v0L96.53,101.95L96.53,101.95z"/>
	<path class="st1" d="M107.98,101.95c0,2.71,2.51,4.91,5.61,4.91h0c3.1,0,5.61-2.2,5.61-4.91v0L107.98,101.95L107.98,101.95z"/>
	<path class="st13" d="M119.2,101.95c0,2.71,2.51,4.91,5.61,4.91h0c3.1,0,5.61-2.2,5.61-4.91v0L119.2,101.95L119.2,101.95z"/>
	<path class="st1" d="M130.63,101.95c0,2.71,2.51,4.91,5.61,4.91h0c3.1,0,5.61-2.2,5.61-4.91v0L130.63,101.95L130.63,101.95z"/>
	<path class="st13" d="M141.84,101.95c0,2.71,2.51,4.91,5.61,4.91h0c3.1,0,5.61-2.2,5.61-4.91v0L141.84,101.95L141.84,101.95z"/>
	<path class="st1" d="M153.25,101.95c0,2.71,2.51,4.91,5.61,4.91h0c3.1,0,5.61-2.2,5.61-4.91v0L153.25,101.95L153.25,101.95z"/>
	<path class="st13" d="M164.46,101.95c0,2.71,2.51,4.91,5.61,4.91l0,0c3.1,0,5.61-2.2,5.61-4.91v0L164.46,101.95L164.46,101.95z"/>
	<path class="st1" d="M175.89,101.95c0,2.71,2.51,4.91,5.61,4.91l0,0c3.1,0,5.61-2.2,5.61-4.91v0L175.89,101.95L175.89,101.95z"/>
	<path class="st13" d="M187.1,101.95c0,2.71,2.51,4.91,5.61,4.91h0c3.1,0,5.61-2.2,5.61-4.91v0L187.1,101.95L187.1,101.95z"/>
	<path class="st1" d="M198.52,101.95c0,2.71,2.51,4.91,5.61,4.91l0,0c3.1,0,5.61-2.2,5.61-4.91v0L198.52,101.95L198.52,101.95z"/>
	<path class="st13" d="M209.9,101.95c0,2.71,2.51,4.91,5.61,4.91h0c3.1,0,5.61-2.2,5.61-4.91v0L209.9,101.95L209.9,101.95z"/>
	<path class="st1" d="M221.29,101.95c0,2.71,2.51,4.91,5.61,4.91h0c3.1,0,5.61-2.2,5.61-4.91v0L221.29,101.95L221.29,101.95z"/>
	<rect x="18.89" y="59.97" class="st14" width="212.19" height="4.61"/>
	<g>
		<circle class="st14" cx="34.5" cy="72.24" r="5.15"/>
		<circle class="st14" cx="54.61" cy="72.24" r="5.15"/>
		<circle class="st14" cx="74.72" cy="72.24" r="5.15"/>
		<circle class="st14" cx="94.82" cy="72.24" r="5.15"/>
		<circle class="st14" cx="114.93" cy="72.24" r="5.15"/>
		<circle class="st14" cx="135.04" cy="72.24" r="5.15"/>
		<circle class="st14" cx="155.15" cy="72.24" r="5.15"/>
		<circle class="st14" cx="175.26" cy="72.24" r="5.15"/>
		<circle class="st14" cx="195.37" cy="72.24" r="5.15"/>
		<circle class="st14" cx="215.48" cy="72.24" r="5.15"/>
	</g>
	<rect x="93.02" y="71.58" class="st1" width="63.93" height="25.92"/>
	<g>
		<path class="st13" d="M104.86,88.92c0,0.28-0.29,0.51-0.64,0.51h-3.81c-0.36,0-0.64-0.23-0.64-0.51v-8.5
			c0-0.28,0.29-0.51,0.64-0.51h0.52c0.34,0,0.63,0.23,0.63,0.51v7.61h2.66c0.36,0,0.64,0.23,0.64,0.51V88.92z"/>
		<path class="st13" d="M110.49,86.83h-1.82l-0.63,2.2c-0.07,0.21-0.36,0.4-0.63,0.4h-0.52c-0.43,0-0.72-0.28-0.63-0.61l0.86-2.99
			l1.63-5.52c0.07-0.21,0.36-0.4,0.63-0.4h0.39c0.27,0,0.57,0.18,0.63,0.4l2.47,8.5c0.09,0.32-0.2,0.62-0.63,0.62h-0.52
			c-0.27,0-0.55-0.18-0.63-0.4L110.49,86.83z M109.08,85.43h1c-0.2-0.68-0.16-1.06-0.5-2.26L109.08,85.43z"/>
		<path class="st13" d="M114.37,80.4c0-0.28,0.29-0.51,0.63-0.51h0.5c0.36,0,0.64,0.23,0.64,0.51v6.43c0,0.75,0.29,1.19,1.16,1.19
			c0.91,0,1.16-0.51,1.16-1.19V80.4c0-0.28,0.29-0.51,0.63-0.51h0.5c0.36,0,0.64,0.23,0.64,0.51v6.43c0,1.58-0.86,2.58-2.93,2.58
			c-2.15,0-2.93-1.09-2.93-2.58V80.4z"/>
		<path class="st13" d="M127.02,89.42c-0.21,0-0.52-0.16-0.59-0.31l-2.48-4.86v4.66c0,0.28-0.3,0.51-0.64,0.51h-0.52
			c-0.34,0-0.64-0.23-0.64-0.51v-8.5c0-0.28,0.3-0.51,0.64-0.51h0.43c0.23,0,0.52,0.16,0.59,0.31l2.48,4.86v-4.66
			c0-0.28,0.29-0.51,0.64-0.51h0.5c0.36,0,0.64,0.23,0.64,0.51v8.5c0,0.28-0.29,0.51-0.64,0.51H127.02z"/>
		<path class="st13" d="M130.53,89.42c-0.36,0-0.64-0.23-0.64-0.51v-8.5c0-0.28,0.29-0.51,0.64-0.51h1.82c2.15,0,3.15,0.96,3.15,2.8
			v3.93c0,1.84-1,2.8-3.15,2.8H130.53z M131.65,81.3v6.72h0.7c0.95,0,1.34-0.45,1.34-1.4V82.7c0-0.95-0.39-1.4-1.34-1.4H131.65z"/>
		<path class="st13" d="M143.08,88.9c0,0.28-0.29,0.51-0.64,0.51h-0.5c-0.36,0-0.64-0.23-0.64-0.51v-2.36c0-0.71-0.5-1.1-1.38-1.1
			h-0.8v3.46c0,0.28-0.29,0.51-0.63,0.51h-0.5c-0.36,0-0.64-0.23-0.64-0.51v-8.5c0-0.28,0.29-0.51,0.64-0.51h2.25
			c2.2,0,2.97,0.88,2.97,2.77c0,0.88-0.2,1.58-0.75,2.02c-0.05,0.04-0.09,0.07-0.14,0.11c0.52,0.44,0.77,1.02,0.77,1.75V88.9z
			 M139.11,84.02h0.8c1,0,1.52-0.4,1.52-1.36c0-0.96-0.27-1.36-1.2-1.36h-1.13V84.02z"/>
		<path class="st13" d="M147.73,82.8l1.43-2.6c0.09-0.14,0.39-0.3,0.59-0.3h0.59c0.48,0,0.77,0.35,0.59,0.71l-2.31,4.24v4.07
			c0,0.28-0.29,0.51-0.64,0.51h-0.5c-0.34,0-0.63-0.23-0.63-0.51v-4.08c-0.77-1.41-1.56-2.81-2.32-4.22
			c-0.2-0.35,0.09-0.71,0.59-0.71h0.57c0.21,0,0.52,0.16,0.59,0.3L147.73,82.8z"/>
	</g>
	<rect x="98.53" y="74.52" class="st13" width="53.02" height="1.38"/>
	<rect x="98.53" y="93.02" class="st13" width="53.02" height="1.38"/>
</g>
</svg>
