<?xml version="1.0" encoding="utf-8"?>
<!-- Generator: Adobe Illustrator 27.4.0, SVG Export Plug-In . SVG Version: 6.00 Build 0)  -->
<svg version="1.1" id="Layer_1" xmlns="http://www.w3.org/2000/svg" xmlns:xlink="http://www.w3.org/1999/xlink" x="0px" y="0px"
	 viewBox="0 0 250 250" style="enable-background:new 0 0 250 250;" xml:space="preserve">
<style type="text/css">
	.st0{opacity:0.35;fill:#E7A184;}
	.st1{fill:#29BDBC;}
	.st2{fill:#B2C9E1;}
	.st3{fill:#51657C;}
	.st4{fill:#C2C9D0;}
	.st5{fill:#F79F8D;}
	.st6{fill:#27BDBE;}
	.st7{fill:#27BDBE;stroke:#27BDBE;stroke-width:0.5;stroke-linecap:round;stroke-miterlimit:10;}
	.st8{fill:#FFFFFF;}
	.st9{fill:#FFFFFF;stroke:#FFFFFF;stroke-width:2.5;stroke-linecap:round;stroke-miterlimit:10;}
	.st10{fill:none;stroke:#27BDBE;stroke-width:0.25;stroke-linecap:round;stroke-miterlimit:10;}
	.st11{fill:none;stroke:#27BDBE;stroke-width:0.5;stroke-linecap:round;stroke-miterlimit:10;}
	.st12{fill:none;stroke:#27BDBE;stroke-width:2;stroke-linecap:round;stroke-miterlimit:10;}
</style>
<path class="st0" d="M168.06,41.64c16.26,11.72,33.25,19.92,47.46,33.4c14.35,13.48,26.07,32.22,30.47,53.46
	c4.39,21.39,1.61,45.26-12.74,58.59c-14.5,13.33-40.43,15.97-61.08,20.8c-20.65,4.69-36.03,11.43-54.78,17.28
	c-18.9,6.01-41.16,11.13-58.3,4.54c-17.28-6.74-29.44-25.34-39.4-44.67c-9.81-19.19-17.43-39.11-17.58-59.03
	c0-19.92,7.47-39.84,22.26-50.83C39.02,64.2,60.84,62.15,78.13,51.16c17.28-11.13,29.88-31.2,44.09-33.69
	C136.28,14.98,151.95,30.07,168.06,41.64z"/>
<g>
	<g>
		<path d="M104.92,55.89c0.8,0.38,1.01,0.98,0.8,1.81c-0.1,0.4-0.07,0.84-0.17,1.24c-0.3,1.15-0.21,2.26,0.06,3.42
			c0.32,1.37,0.52,2.78,0.74,4.17c0.16,1,0.44,1.92,1.04,2.76c3.46,4.82,6.9,9.64,10.32,14.48c0.5,0.7,1.07,1.05,1.94,1.1
			c2.62,0.16,5.23,0.39,7.84,0.6c4.81,0.39,9.62,0.79,14.43,1.17c1.55,0.12,1.73-0.11,2.09,1.68c0.02,0.08,0.14,0.14,0.29,0.28
			c0.24-0.02,0.55-0.04,0.86-0.09c2.22-0.37,4.43-0.8,6.66-1.12c1.66-0.23,3.33-0.41,5,0.07c0.79,0.23,1.62,0.41,2.44,0.42
			c6.56,0.03,13.12,0.01,19.68,0.01c0.26,0,0.53-0.02,0.79,0.01c0.76,0.08,0.98,0.41,0.78,1.17c-0.05,0.2-0.15,0.39-0.22,0.59
			c-2.41,6.1-4.84,12.18-7.2,18.3c-0.39,1.02-0.96,1.36-2,1.3c-0.81-0.05-1.65-0.16-2.5,0.22c0.23,0.74,0.81,1.04,1.26,1.43
			c6.45,5.5,12.38,11.49,17.66,18.13c7.08,8.89,12.82,18.54,16.53,29.33c1.2,3.48,2.12,7.02,2.71,10.65c0.23,1.41-0.08,2.35-1.4,3.1
			c-1.82,1.04-3.52,2.28-5.26,3.45c-0.31,0.21-0.57,0.5-0.86,0.76c0.42,0.18,0.72,0.14,1.01,0.09c3.13-0.52,6.26-0.62,9.4-0.1
			c11.62,1.9,20.64,10.87,22.52,22.45c0.19,1.19,0.29,2.4,0.33,3.6c0.03,1.03-0.13,1.13-1.15,1.29c-0.39,0.06-0.78,0.16-1.27,0.26
			c0,0.58,0.03,1.05-0.01,1.52c-0.09,1.36-0.12,2.73-0.33,4.07c-2.04,13.2-15.12,23.47-30.11,20.02
			c-10.92-2.51-18.97-12.52-18.97-23.72c0-0.66-0.08-1.32-0.12-1.98c-0.49-0.07-0.8-0.12-1.1-0.17c-1.06-0.15-1.17-0.23-1.18-1.26
			c-0.01-0.73,0.05-1.47,0.13-2.2c0.48-4.41,1.95-8.46,4.39-12.17c0.17-0.26,0.24-0.6,0.45-1.14c-0.53,0.27-0.82,0.38-1.08,0.54
			c-5.95,3.93-11.9,7.88-17.86,11.81c-0.66,0.43-1.01,1-1.24,1.73c-1.41,4.4-4.43,7.17-8.82,8.4c-1.29,0.36-2.69,0.37-4.04,0.49
			c-0.67,0.06-1.31-0.04-1.8,0.67c-0.36,0.51-2.74,0.61-3.11,0.1c-0.66-0.93-1.53-0.76-2.39-0.76c-13.33-0.01-26.66,0-39.99,0
			c-0.62,0-1.24,0-1.95,0c-0.24,0.82-0.45,1.51-0.64,2.21c-1.39,4.94-4.05,9.08-8,12.36c-5.55,4.62-11.98,6.3-19.09,5.55
			c-3.98-0.79-6.83-2.18-7.68-2.35c2.07-0.11,10.26-1.82,10.69,1.34c-0.25-0.14-0.5-0.2-0.75-0.22c-2.51-0.2-5.01-0.43-7.52-0.55
			c-1.08-0.06-2.05-0.33-2.99-0.85c-7.42-4.13-11.8-10.36-13.03-18.78c-0.06-0.41-0.11-0.85-0.29-1.22
			c-1.08-2.16-0.98-4.24,0.32-6.28c0.17-0.26,0.13-0.66,0.21-1.13c-0.72-0.04-1.28-0.09-1.85-0.09c-2.57-0.01-5.14,0-7.71,0
			c-0.37,0-0.74,0.01-1.1,0c-1.37-0.04-1.48-0.16-1.52-1.57c0-0.16,0-0.31,0-0.47c0-5.35-0.03-10.71,0.02-16.06
			c0.01-1.62,0.11-3.26,0.37-4.86c1.83-11.59,10.96-20.99,22.54-23.26c1.12-0.22,2.26-0.4,3.56-0.62c0-0.59,0-1.1,0-1.61
			c0-2.05,0.02-4.09,0-6.14c-0.03-2.6,1.01-4.56,3.37-5.75c0.25-0.13,0.45-0.35,0.67-0.52c-0.1-0.13-0.12-0.19-0.16-0.21
			c-0.19-0.09-0.38-0.21-0.58-0.25c-2.22-0.46-3.07-2-3.25-4.07c-0.03-0.37-0.04-0.73-0.06-1.1c-0.09-2.69,0.34-5.33,0.79-7.97
			c0.14-0.82,0.27-1.63,0.43-2.55c-1.17-0.25-1.31-0.91-1.09-1.9c0.41-1.79,0.68-3.6,1.02-5.41c0.33-1.79,0.66-3.59,1-5.47
			c-1.28-0.16-2.02-1.14-3.24-1.33c-6.15-1.01-12.29-2.15-18.43-3.23c-7.48-1.32-14.97-2.64-22.46-3.95
			c-1.86-0.33-3.72-0.64-5.58-0.97c-1.47-0.26-1.56-0.4-1.35-1.84c0.04-0.26,0.05-0.52,0.1-0.78c1.38-7.85,2.76-15.69,4.15-23.54
			c1.54-8.72,3.09-17.45,4.63-26.17c0.48-2.74,0.95-5.47,1.47-8.2c0.24-1.23,0.42-1.34,1.56-1.14c3.61,0.63,7.23,1.28,10.84,1.92
			c8,1.41,16,2.82,24,4.23c4.8,0.85,9.6,1.68,14.4,2.54c1.32,0.23,1.48,0.47,1.24,1.8c-0.34,1.91-0.7,3.82-1.02,5.73
			c-0.09,0.54-0.08,1.11-0.12,1.74c1.2,0.13,2.24,0.23,3.27,0.36c1.3,0.16,1.39,0.15,1.91-1.05c1.22-2.79,2.41-5.58,3.6-8.38
			c0.51-1.19,0.52-1.21,1.85-0.9c0.1,0.02,0.21,0,0.32,0c0.52-0.41,0.65-0.8,0.21-1.45c-0.7-1.03-1.31-2.14-1.83-3.28
			c-1.23-2.71-1.58-5.69-1.77-8.56c-0.42-6.12,2.75-11.05,9.02-12.93c2.76-0.83,5.58-1.08,8.41-0.75c3.5,0.41,6.36,2.02,8.43,4.94
			c1.27,1.78,2.01,3.79,2.47,5.91c0.11,0.5,0.23,1,0.34,1.44c0.27,0.1,0.42,0.18,0.57,0.2c4.16,0.55,8.32,1.09,12.47,1.64
			c0.57,0.08,1.15,0.16,1.69,0.34c0.46,0.15,0.49,0.76,0.06,0.98c-0.37,0.19-0.78,0.29-1.19,0.39c-4.87,1.15-9.8,1.78-14.81,1.72
			c-1.4-0.02-1.54,0.14-1.63,1.49c-0.02,0.26-0.01,0.52-0.02,0.79c-0.02,0.55,0.24,1.02,0.76,1.02c1.45,0,1.54,1.02,1.63,2.03
			c0.06,0.73,0.08,1.47,0.01,2.19c-0.25,2.8-1.52,5.21-2.96,7.54c-0.52,0.84-1.2,1.23-2.21,1.17c-1.82-0.11-3.64-0.16-5.7-0.24
			C103.83,54.48,103.88,55.4,104.92,55.89z M20.05,99.43c5.7,1.28,46.59,8.3,48.17,8.25c0.12-0.39,0.29-0.82,0.37-1.27
			c2.01-11.36,4.01-22.72,6.01-34.08c0.68-3.87,1.37-7.75,2.05-11.62c0.12-0.66,0.17-1.33,0.27-2.05c-0.43-0.16-0.76-0.35-1.1-0.41
			c-16-2.79-31.99-5.68-48.03-8.44c-0.19,0.44-0.37,0.71-0.42,1c-2.82,16.05-5.7,32.09-8.48,48.19
			C19.38,99.18,19.7,99.35,20.05,99.43z M164,197.71c0.74-0.42,1.28-0.69,1.79-1.02c12.12-8.02,24.24-16.06,36.36-24.09
			c0.74-0.49,1.46-1.03,2.24-1.46c0.9-0.51,1.17-1.14,0.99-2.2c-0.72-4.32-1.94-8.49-3.48-12.57c-3.85-10.17-9.51-19.26-16.36-27.66
			c-5.49-6.73-11.68-12.78-18.36-18.32c-0.85-0.71-1.72-1.1-2.84-1.08c-2.78,0.05-5.56,0.01-8.34,0.02c-0.55,0-1.11,0.1-1.89,0.18
			c0.34,0.67,0.55,1.13,0.8,1.57c6.67,11.73,10.94,24.28,12.74,37.64c1.78,13.22,0.9,26.28-2.8,39.13c-0.1,0.35-0.21,0.7-0.3,1.06
			c-0.31,1.21-0.32,1.24,0.81,1.8c0.49,0.24,0.75,0.54,0.76,1.07c0.01,0.37,0.03,0.73,0.03,1.1c-0.01,1.47-0.01,1.48-1.51,1.85
			c-0.2,0.05-0.38,0.15-0.63,0.25C164,195.81,164,196.62,164,197.71z M107.25,198.47c0.52,0,1.05,0.01,1.57-0.01
			c1.4-0.05,1.62-0.24,1.63-1.7c0.02-7.13,0.08-14.27-0.02-21.4c-0.09-5.74-4.35-10.09-10.07-10.55c-0.42-0.03-0.84-0.05-1.26-0.05
			c-7.29,0-14.58-0.02-21.87,0c-5.84,0.02-11.35,1.39-16.38,4.38c-9.27,5.51-14.76,13.62-16.3,24.33c-0.17,1.19-0.24,2.4-0.26,3.6
			c-0.01,1.1,0.21,1.29,1.27,1.36c0.52,0.04,1.05,0.02,1.57,0.02c10.07,0,20.14,0,30.21,0C87.32,198.47,97.28,198.47,107.25,198.47z
			 M108.78,107.32c0.08,2.46,0.17,4.93,0.2,7.4c0.04,2.51,0.01,5.03,0.01,7.68c0.93,0.17,1.74,0.35,2.55,0.45
			c5.46,0.69,10.93,1.38,16.39,2.03c5.31,0.63,10.63,1.19,15.95,1.79c1.41,0.16,2.83,0.25,4.22,0.5c3.36,0.63,5.53,3.26,5.44,6.69
			c-0.05,2.04-0.27,4.08-0.45,6.12c-0.6,6.74-1.21,13.48-1.82,20.21c-0.51,5.59-1.05,11.17-1.54,16.76
			c-0.09,1.04-0.59,1.52-1.69,1.53c0,0.92,0,1.73,0,2.75c1.05-0.82,2.05-0.73,3.02-0.07c0.22-0.15,0.39-0.27,0.56-0.37
			c0.82-0.47,1.08-0.38,1.09,0.59c0.01,0.77,0.51,0.8,1,0.96c0.42-0.31,0.83-0.62,1.2-0.89c1.02,0.44,0.19,1.15,0.37,1.68
			c0.36,0.38,0.73,0.61,1.19,0.14c0.11-0.11,0.19-0.28,0.33-0.33c0.22-0.09,0.61-0.21,0.68-0.13c0.16,0.2,0.22,0.52,0.22,0.8
			c0,0.25-0.14,0.49-0.23,0.77c1.86,1.32,3.69,2.62,5.56,3.95c0.55-0.36,0.61-0.97,0.72-1.5c0.85-3.84,1.8-7.66,2.44-11.53
			c0.77-4.66,1.08-9.38,1.03-14.11c-0.15-13-2.77-25.5-7.68-37.53c-1.77-4.33-3.86-8.49-6.15-12.57c-0.76-1.34-1.62-2.11-3.22-1.86
			c-0.51,0.08-1.05,0.02-1.57-0.01c-2.87-0.18-5.11-2.33-5.38-5.21c-0.16-1.69,0.08-3.35,0.53-4.98c0.12-0.44,0.2-0.88,0.35-1.54
			c-1.36,0.15-2.54,0.27-3.72,0.41c-4.99,0.61-9.98,1.28-14.98,1.84c-3.8,0.42-7.62,0.68-11.43,1.06c-1.81,0.18-3.57,0.25-5.06-1.13
			c-0.12,0.06-0.24,0.13-0.36,0.19C108.61,102.33,108.7,104.82,108.78,107.32z M112.96,189.57c0.72-3.34,2.35-6.27,4.01-9.19
			c0.34-0.6,0.95-1.04,1.61-1.74c0.07-0.62,0.25-1.49-0.44-2.27c-0.15-0.17-0.14-0.49-0.17-0.75c-0.02-0.15,0.02-0.32,0.05-0.47
			c0.96-3.77,0.57-7.62,0.62-11.43c0.03-2.41,0.01-4.83,0-7.24c0-0.56-0.07-1.13-0.12-1.84c-0.65-0.07-1.2-0.17-1.75-0.17
			c-16.16-0.01-32.32,0.02-48.48-0.01c-12.76-0.03-24.79,9.46-26.73,23.56c-0.15,1.09-0.18,2.2-0.18,3.3
			c-0.02,5.09-0.01,10.18-0.01,15.27c0,0.47-0.02,0.96,0.09,1.41c0.06,0.23,0.41,0.51,0.63,0.52c0.22,0.01,0.56-0.27,0.64-0.49
			c0.12-0.33,0.07-0.72,0.08-1.09c0.5-16.51,12.4-30.28,28.62-33.06c1.75-0.3,3.55-0.43,5.32-0.45c7.61-0.05,15.22-0.02,22.83-0.03
			c3.43-0.01,6.37,1.19,8.77,3.62c2.27,2.31,3.42,5.12,3.44,8.37c0.01,2.36,0.01,4.72,0.01,7.08c0,2.1-0.01,4.2,0.01,6.3
			c0.01,0.54-0.13,1.16,0.59,1.67C112.62,190.11,112.9,189.86,112.96,189.57z M93.17,85.52c-5.07,7.09-11.22,13.16-17.78,18.85
			c-1.23,1.06-2.46,2.14-3.74,3.13c-0.92,0.71-1.46,1.53-1.66,2.72c-0.51,3.05-1.16,6.08-1.73,9.12c-0.1,0.55-0.12,1.11-0.18,1.64
			c1.53,0.41,36.98,0.19,39.46-0.24c0.05-0.49,0.18-1.04,0.17-1.58c-0.15-6.35-0.34-12.69-0.45-19.04
			c-0.03-1.41-0.52-2.44-1.52-3.44c-3.54-3.58-6.99-7.25-10.48-10.89c-0.36-0.37-0.73-0.73-1.23-1.23
			C93.65,84.98,93.38,85.23,93.17,85.52z M144.81,200.52c-0.81-0.03-1.53-0.09-2.25-0.09c-19.93,0-39.86,0-59.79,0
			c-8.6,0-17.2-0.01-25.8,0.01c-0.73,0-1.49,0.01-2.17,0.24c-1.73,0.57-2.84,2.41-2.66,4.2c0.18,1.84,1.56,3.38,3.38,3.65
			c0.98,0.14,1.99,0.15,2.98,0.15c25.54,0.01,51.08,0.01,76.62,0.01c2.57,0,5.14,0.01,7.71-0.01c0.62,0,1.24-0.08,1.97-0.13
			C144.81,205.75,144.81,203.21,144.81,200.52z M142.57,89.66c-0.81-0.02-1.59-0.08-2.35-0.06c-7.08,0.11-14.16,0.22-21.24,0.38
			c-1.25,0.03-2.17-0.31-3.01-1.26c-5.35-6.05-10.76-12.05-16.14-18.07c-1.33-1.49-2.71-2.95-4.46-3.94
			c-0.99-0.56-2.07-1.05-3.17-1.3c-1.89-0.42-3.13,0.3-3.93,2.06c-1.57,3.48-1.25,6.76,1.23,9.71c1.93,2.28,3.9,4.54,5.95,6.71
			c4.25,4.5,8.52,8.98,12.89,13.36c2.71,2.71,2.26,2.45,5.97,2.2c4.45-0.29,8.88-0.78,13.31-1.28c4.69-0.53,9.36-1.18,14.04-1.79
			c0.36-0.05,0.72-0.13,1.36-0.25C142.92,93.95,143.02,91.87,142.57,89.66z M197.93,180.37c3.24,6.82,6.5,13.63,9.7,20.47
			c0.54,1.15,1.18,1.64,2.49,1.62c6.34-0.06,12.69-0.03,19.04-0.03c0.56,0,1.13-0.07,1.87-0.13c0-0.77,0.07-1.44-0.01-2.09
			c-1.38-12.02-10.84-21.38-22.94-22.77c-3.07-0.35-6.07-0.08-9.04,0.65c-0.55,0.13-1.07,0.35-1.8,0.6
			C197.53,179.42,197.71,179.9,197.93,180.37z M116.16,152.92c2.36,0,2.39-0.03,2.39-2.36c0.01-1.84,0.02-3.67-0.02-5.51
			c-0.03-1.47-0.3-1.73-1.77-1.8c-2.78-0.12-5.55-0.22-8.33-0.34c-8.12-0.35-16.23-0.76-24.31-1.64c-0.57-0.06-1.15-0.11-1.71-0.25
			c-3.25-0.83-6.57-0.57-9.86-0.53c-2.91,0.03-4.56,1.73-4.61,4.63c-0.03,1.99-0.02,3.98,0,5.98c0.01,1.66,0.16,1.81,1.81,1.82
			c5.77,0.02,11.53,0.01,17.3,0.01c2.1,0,4.19,0,6.29,0C100.96,152.92,108.56,152.92,116.16,152.92z M78.68,49.11
			c-0.63-0.17-1.1-0.34-1.59-0.43c-7.02-1.25-14.05-2.49-21.07-3.73c-8.06-1.42-16.11-2.84-24.17-4.26
			c-0.77-0.14-1.54-0.24-2.27-0.35c-0.63,1.11-1.57,5.93-1.54,7.91c0.74,0.17,1.53,0.39,2.33,0.54c3.92,0.71,7.85,1.39,11.78,2.08
			c11.16,1.96,22.32,3.93,33.47,5.89c0.46,0.08,0.92,0.12,1.68,0.22C77.76,54.28,78.21,51.77,78.68,49.11z M89.02,78.8
			c-0.83-1.07-1.68-2.17-2.25-3.38c-1.54-3.26-1-6.45,0.72-9.48c0.78-1.37,2.09-2,3.68-2.05c1.64-0.05,3.08,0.53,4.47,1.3
			c0.54,0.3,1.07,0.62,1.84,0.77c-0.1-0.29-0.13-0.66-0.33-0.84c-0.38-0.34-0.85-0.6-1.31-0.85c-3.3-1.79-6.81-2.99-10.47-3.74
			c-1.51-0.31-1.61-0.26-2.21,1.22c-3.89,9.7-7.07,19.62-9.25,29.85c-0.77,3.64-1.54,7.28-2.3,10.92c-0.06,0.3-0.09,0.6-0.16,1.1
			c0.41-0.18,0.71-0.24,0.91-0.41c6.92-5.89,13.44-12.18,18.72-19.64c0.3-0.42,0.54-0.87,0.86-1.39
			C90.91,81.02,89.91,79.96,89.02,78.8z M159.59,89.55c0.25,0.47,0.49,0.91,0.72,1.36c0.73,1.42,1.19,2.9,1.17,4.52
			c-0.02,2.54-1.13,4.46-3.31,5.69c-2.71,1.54-5.66,1.8-8.69,1.29c-1.29-0.21-2.16-1.03-2.73-2.16c-0.33-0.65-0.61-1.32-0.99-2.15
			c-0.25,0.34-0.51,0.54-0.56,0.79c-0.28,1.49-0.69,2.98-0.72,4.47c-0.05,2.5,1.79,4.34,4.28,4.59c0.42,0.04,0.84,0.03,1.26,0.03
			c6.34,0,12.69,0,19.03,0c0.1,0,0.21,0,0.31,0c1.93-0.02,1.97-0.04,1.98-1.91c0.01-5.03,0.01-10.06,0-15.1
			c0-0.46-0.06-0.93-0.1-1.47C169.56,89.03,161,89.07,159.59,89.55z M209.3,205.38c0,1.92-1.1,3.45-2.81,3.9
			c-1.86,0.49-3.62-0.21-4.59-1.89c-0.47-0.82-0.87-1.68-1.24-2.55c-0.35-0.83-0.88-1.2-1.81-1.17c-1.78,0.05-3.57-0.01-5.35,0.02
			c-1.4,0.02-1.52,0.16-1.57,1.54c-0.24,6.06,4.2,11.83,10.23,13.29c8.16,1.98,16.19-3.94,16.65-12.32
			c0.16-2.94-0.32-2.51-2.32-2.53c-2.1-0.01-4.2,0-6.3,0.01c-0.25,0-0.51,0.07-0.89,0.12C209.3,204.44,209.3,204.91,209.3,205.38z
			 M88.62,33.97c8.02-0.94,16.08-1.43,24.14-1.8c0.2-0.01,0.39-0.12,0.74-0.23c-0.08-0.57-0.12-1.13-0.25-1.67
			c-1.38-5.67-5.25-8.92-11.08-9.16c-2.8-0.12-5.55,0.34-8.12,1.53c-4.26,1.97-6.22,5.42-6.32,10.03c-0.01,0.36,0.08,0.71,0.14,1.19
			C88.22,33.91,88.42,33.99,88.62,33.97z M179.87,202.13c1.23,0.39,17.58,0.45,19.21,0.03c-0.11-0.38-0.17-0.79-0.34-1.14
			c-2.74-5.79-5.49-11.57-8.24-17.35c-0.15-0.32-0.38-0.6-0.62-0.98C184.16,186.06,178.73,196.74,179.87,202.13z M160.05,194.69
			c-5.92,0.02-11.85,0.12-17.77,0.09c-9.28-0.06-18.56-0.2-27.83-0.31c-0.78-0.01-1.56,0-2.35,0c-0.45,1.42-0.3,2.68-0.1,4.08
			c0.67,0.04,1.23,0.1,1.8,0.1c15.52,0.01,31.04,0,46.56,0c0.26,0,0.53,0.01,0.79-0.01c1.09-0.08,1.24-0.2,1.27-1.33
			c0.02-0.77-0.05-1.55-0.09-2.46C161.49,194.78,160.77,194.68,160.05,194.69z M77.07,218.9c5.4-0.19,11.23-4.55,11.74-8.78
			c-1.2-0.28-23.03-0.33-24.7-0.03C65.05,215,71.17,219.11,77.07,218.9z M194.33,179.4c-1.05,0.69-2.08,1.4-3.22,2.17
			c0.22,0.56,0.38,1.04,0.6,1.5c3.62,7.63,7.25,15.25,10.88,22.88c0.18,0.38,0.36,0.77,0.61,1.1c0.84,1.12,2.16,1.44,3.35,0.84
			c1.25-0.63,1.79-1.96,1.34-3.31c-0.12-0.35-0.27-0.68-0.42-1.01c-3.71-7.82-7.43-15.63-11.15-23.45c-0.2-0.42-0.44-0.82-0.75-1.4
			C195.04,179,194.67,179.18,194.33,179.4z M132.81,185.06c-0.4,0.41-0.68,0.95-1.11,1.31c-0.21,0.18-0.75,0.25-0.96,0.1
			c-0.19-0.13-0.29-0.68-0.18-0.93c0.27-0.61,0.68-1.16,1.01-1.69c-0.23-0.63-0.61-0.71-0.99-0.35c-0.37,0.36-0.64,0.82-0.97,1.23
			c-0.23,0.28-0.45,0.6-0.74,0.8c-0.18,0.12-0.58,0.16-0.71,0.05c-0.19-0.18-0.37-0.56-0.31-0.78c0.13-0.44,0.43-0.83,0.65-1.24
			c0.2-0.35,0.39-0.71,0.77-1.42c-0.57,0.27-0.88,0.32-1.03,0.49c-0.47,0.56-0.89,1.16-1.3,1.77c-0.46,0.7-1.08,0.92-1.89,0.76
			c-1.73-0.34-3.31-0.97-4.68-2.1c-0.64-0.53-1.29-1.04-2.02-1.62c-0.27,0.27-0.55,0.44-0.67,0.7c-0.95,1.98-1.89,3.97-2.8,5.97
			c-0.17,0.37-0.24,0.8-0.31,1.21c-0.09,0.56,0.21,0.91,0.75,0.99c0.41,0.06,0.83,0.07,1.25,0.07c7.65,0.07,15.3,0.13,22.95,0.18
			c0.55,0,1.1-0.07,1.71-0.12c-0.58-1.51-3.21-3.63-5.62-4.59c-0.35,0.38-0.72,0.81-1.1,1.22c-0.32,0.34-0.75,0.54-1.09,0.15
			c-0.18-0.21-0.21-0.68-0.12-0.97c0.13-0.48,0.42-0.91,0.64-1.36c-0.11-0.11-0.23-0.22-0.34-0.34
			C133.35,184.73,133.02,184.84,132.81,185.06z M131.5,180.4c0.44,0.72,0.05,1.85,1.35,1.83c0.13-0.12,0.33-0.27,0.51-0.45
			c0.28-0.28,0.59-0.48,0.96-0.21c0.4,0.29,0.19,0.64,0.04,0.99c-0.06,0.14-0.06,0.3-0.09,0.47c0.39,0.45,0.67,0.55,1.3,0.18
			c1.11-0.66,1.89-1.49,2.45-2.65c0.5-1.05,0.58-1.01,1.9-0.81c0.19-0.58,0.3-1.14-0.5-1.32c-0.94-0.21-1.05-0.92-1.11-1.67
			c-0.13-1.67-0.23-3.34-0.34-5.02c-0.25-3.82-0.49-7.63-0.75-11.45c-0.04-0.55-0.18-1.09-0.27-1.64c-0.11-0.02-0.23-0.03-0.34-0.05
			c-0.25,0.55-0.53,1.09-0.74,1.65c-1.87,5.06-3.73,10.12-5.6,15.18c-0.05,0.15-0.1,0.3-0.15,0.45c-0.33,1.14-0.85,2.05-2.29,1.83
			c-0.58,1.05-0.52,2.14-0.77,3.58c1.16-1.24,2.1-0.63,3.02-0.28C130.58,180.81,131.03,180.61,131.5,180.4z M105.8,74.3
			c-0.42-3.54-0.84-7.08-1.29-10.61c-0.12-0.94-0.61-1.61-1.43-2.13c-4.8-3-9.58-6.05-14.38-9.07c-0.31-0.19-0.64-0.34-0.95-0.5
			c-0.91,0.92-2.23,3.71-2.57,5.48c0.52,0.15,1.05,0.32,1.59,0.45c3.91,0.89,7.61,2.3,11.14,4.23c1.73,0.94,2.54,2.25,2.49,4.16
			c-0.01,0.21,0.05,0.43,0.02,0.63c-0.29,1.65,0.4,2.91,1.49,4.08c1.21,1.29,2.32,2.68,3.47,4.03c0.11-0.05,0.21-0.1,0.32-0.15
			C105.75,74.7,105.83,74.5,105.8,74.3z M155.4,187.21c-0.22,0.17-0.69,0.19-0.96,0.08c-0.16-0.07-0.26-0.57-0.18-0.82
			c0.12-0.44,0.43-0.84,0.59-1.27c0.05-0.12-0.12-0.38-0.25-0.5c-0.08-0.07-0.34-0.06-0.42,0.02c-0.27,0.25-0.49,0.54-0.72,0.82
			c-0.27,0.32-0.47,0.74-0.81,0.95c-0.24,0.16-0.7,0.16-0.97,0.04c-0.15-0.07-0.24-0.58-0.15-0.82c0.16-0.43,0.47-0.81,0.71-1.22
			c0.18-0.31,0.46-0.67,0.05-0.97c-0.48-0.36-0.77,0.05-1.02,0.38c-0.29,0.37-0.54,0.77-0.82,1.15c-0.16,0.21-0.3,0.48-0.52,0.57
			c-0.26,0.11-0.66,0.17-0.86,0.04c-0.19-0.13-0.32-0.57-0.25-0.8c0.14-0.44,0.46-0.81,0.68-1.23c0.17-0.34,0.3-0.7,0.51-1.21
			c-0.85,0.13-1.03,0.68-1.33,1.07c-0.29,0.37-0.56,0.76-0.83,1.15c-0.44,0.65-1.02,0.83-1.78,0.68c-1.84-0.36-3.51-1.06-4.96-2.26
			c-0.56-0.46-1.14-0.9-1.74-1.38c-1.03,0.83-1.41,1.89-1.78,3.09c0.36,0.3,0.69,0.63,1.06,0.89c1.73,1.21,3.37,2.49,4.65,4.2
			c0.24,0.33,0.75,0.52,1.17,0.63c0.39,0.11,0.83,0.05,1.25,0.05c4.93,0,9.87,0.01,14.8,0c0.6,0,1.25,0.13,1.81-0.25
			c-0.69-1.44-3.37-3.51-5.73-4.41C156.17,186.37,155.84,186.86,155.4,187.21z M144.22,92.17c0.08,0.88,0.18,1.75,0.27,2.55
			c0.2,0.13,0.28,0.22,0.37,0.23c1.79,0.2,1.76,0.21,2.23,2.07c0.22,0.86,0.51,1.71,0.86,2.52c0.4,0.92,1.14,1.44,2.17,1.6
			c2.35,0.36,4.61,0.06,6.76-0.9c2.45-1.1,3.55-3.24,3.14-5.88c-0.28-1.82-1.08-3.38-2.35-4.7c-0.81-0.84-1.78-1.31-2.95-1.22
			c-1.09,0.08-2.21,0.14-3.27,0.39c-2.03,0.49-4.04,1.11-6.05,1.7c-0.39,0.11-0.75,0.33-1.19,0.52
			C144.22,91.45,144.19,91.82,144.22,92.17z M106.45,42.23c-0.82,0.07-1.3,0.39-1.48,1.29c-0.4,2-0.89,3.98-1.4,5.95
			c-0.19,0.75,0.05,1.18,0.68,1.54c1.56,0.88,3.2,1.53,4.96,1.89c0.69,0.14,1.34,0.14,1.79-0.57c1.74-2.72,3.2-5.54,2.99-8.9
			c-0.03-0.56-0.17-1.11-0.29-1.86C111.12,41.8,108.79,42.02,106.45,42.23z M148.75,200.51c-0.34,2.65-0.18,5.24-0.1,7.78
			c4.9,1.74,12.24-2.6,13.04-7.78C157.34,200.51,153.12,200.51,148.75,200.51z M127.53,86.83c-2.87-0.23-5.74-0.47-8.62-0.65
			c-0.96-0.06-1.51-0.57-2.02-1.28c-2.84-3.96-5.7-7.9-8.56-11.85c-0.29-0.41-0.61-0.8-0.99-1.29c-0.22,1.2-0.05,4.86,0.27,5.55
			c0.17,0.37,0.44,0.71,0.72,1.01c2.8,3.05,5.63,6.07,8.4,9.15c0.74,0.82,1.55,1.1,2.62,1.07c5.24-0.13,10.48-0.21,15.71-0.31
			c1.77-0.03,3.55-0.06,5.32-0.09c-0.01-0.09-0.02-0.18-0.03-0.27C136.09,87.52,131.81,87.17,127.53,86.83z M109.89,34.98
			c-0.77,0.18-1.51,0.33-2.14,0.89c-0.19,0.17-0.63,0.05-0.96,0.06c0-0.29-0.07-0.62,0.04-0.87c0.14-0.32,0.43-0.58,0.73-0.96
			c-0.67-0.4-1.35-0.18-1.98-0.19c-0.52-0.01-1.05,0.05-1.57,0.06c-0.89,0.01-1.45,0.35-1.7,1.28c-0.23,0.85-0.61,1.67-0.97,2.48
			c-0.26,0.58-0.16,1.01,0.33,1.37c1.01,0.74,2.03,1.49,3.05,2.21c0.2,0.14,0.49,0.26,0.73,0.24c1.76-0.13,3.52-0.3,5.3-0.46
			c0.26-2.4,0.5-4.62,0.74-6.88C110.84,34.53,110.39,34.87,109.89,34.98z M172.97,89.23c-0.29,1.35-0.36,12.83-0.09,14.88
			c0.22-0.21,0.45-0.33,0.52-0.51c1.78-4.48,3.55-8.97,5.31-13.45c0.09-0.23,0.08-0.49,0.14-0.91
			C176.81,88.99,174.88,88.99,172.97,89.23z M88.16,50.46c5.21,3.3,10.33,6.54,15.5,9.81c0.67-0.94,0.57-1.86,0.65-2.72
			c0.02-0.23-0.28-0.54-0.52-0.72c-0.42-0.31-0.89-0.55-1.34-0.82c-3.86-2.23-7.72-4.46-11.59-6.69c-0.54-0.31-1.09-0.6-1.91-1.05
			C88.66,49.1,88.43,49.71,88.16,50.46z M78.25,59.73c-0.92,4.03-1.48,8.11-2.22,12.16c-0.73,4.01-1.42,8.03-1.92,12.13
			c0.14-0.26,0.34-0.5,0.42-0.78c2.02-7.55,4.55-14.93,7.45-22.19c0.09-0.24,0.15-0.49,0.27-0.91
			C80.92,59.56,79.68,59.67,78.25,59.73z M102.02,54.15c0.42-0.72,0.24-1.21-0.15-1.66c-0.17-0.19-0.42-0.31-0.62-0.47
			c-0.36-0.28-0.9-0.52-0.64-1.1c0.28-0.61,0.77-0.33,1.22-0.16c0.13,0.05,0.28,0.04,0.45,0.06c-0.49-1.06-4.07-5.05-5.74-6.36
			c-0.39,0.34-0.82,0.68-1.23,1.06c-0.87,0.8-1.78,1.47-3.06,1.34c-0.55-0.06-0.9,0.19-0.99,1.08
			C94.81,49.99,98.38,52.05,102.02,54.15z M100.63,45.49c-0.39,0.1-0.79,0.13-1.42,0.23c1.07,1.43,2.14,2.58,3.46,3.75
			c0.21-0.52,0.38-0.84,0.46-1.17c0.41-1.68,0.76-3.37,1.19-5.04c0.18-0.7,0.07-1.19-0.54-1.63c-1.22-0.89-2.38-1.88-3.61-2.75
			c-1.37-0.97-3.45,0.05-3.71,1.77c-0.32,2.15,1.36,4.09,3.53,4.08c0.56,0,1.12-0.08,1.85-0.14
			C101.58,45.42,101.05,45.38,100.63,45.49z M119.97,143.47c0,1.51,0,3.01,0,4.51c0,1.57,0.01,3.14,0.01,4.71
			c0,1.52-0.04,3.03,0,4.55c0.04,1.48-0.2,2.98,0.22,4.62c0.68-1.36,3.52-16.86,3.4-18.29
			C122.47,143.14,121.32,143.13,119.97,143.47z M142.7,192.04c-1.99-0.02-3.99-0.05-5.98-0.06c-3.88-0.02-7.77-0.01-11.65-0.06
			c-3.25-0.04-6.5-0.14-9.75-0.2c-0.47-0.01-0.94,0-1.42,0.03c-0.71,0.04-0.85,0.47-0.68,1.26c3.31,0.25,6.66,0.06,9.99,0.17
			c3.41,0.11,6.82,0.14,10.23,0.17c3.34,0.03,6.69,0.01,10.07,0.01C143.81,192.32,143.42,192.05,142.7,192.04z M121.67,176.9
			c-0.57-0.06-0.85,0.29-0.91,0.84c-0.05,0.41-0.11,0.83-0.18,1.24c-0.37,2.28-0.23,2.59,1.79,3.76c0.58,0.34,1.22,0.62,1.86,0.8
			c1.2,0.32,1.62,0.43,2.19-1.06c-1.28-1.5,0.1-3.16-0.24-5.06C124.65,177.24,123.16,177.05,121.67,176.9z M146.57,178.69
			c-1.16-0.41-3.49-0.46-5.22-0.07c-0.02,0.71-0.12,1.48-0.04,2.23c0.03,0.36,0.32,0.76,0.6,1.02c0.93,0.85,2.02,1.46,3.25,1.79
			c1.39,0.38,1.39,0.39,2.25-1.09C146.23,181.43,147.05,179.92,146.57,178.69z M162.67,193.39c0.37,0,0.73,0,1.1-0.01
			c0.42-0.02,0.88-0.04,0.9-0.63c0.02-0.69-0.49-0.7-0.97-0.73c-0.21-0.01-0.42-0.01-0.63-0.01c-5.45-0.01-10.9-0.02-16.35-0.03
			c-0.26,0-0.52,0-0.79,0.02c-0.45,0.03-0.86,0.12-0.83,0.7c0.03,0.58,0.47,0.62,0.9,0.64c0.31,0.02,0.63,0.02,0.94,0.02
			c2.67,0,5.35,0,8.02,0c0,0.01,0,0.02,0,0.03C157.53,193.39,160.1,193.39,162.67,193.39z M112.92,35.03
			c0.07,0.92,0.21,1.11,1.14,1.14c3.31,0.12,6.58-0.23,9.82-0.84c0.14-0.03,0.26-0.14,0.42-0.23c-2.72-0.85-9.96-1.58-11.33-1.11
			C112.94,34.41,112.9,34.72,112.92,35.03z M147.36,208.6c0.02-1.51,0.02-3.02,0.01-4.53c0-0.99,0.01-1.98-0.06-2.96
			c-0.02-0.2-0.37-0.38-0.57-0.57c-0.15,0.18-0.44,0.35-0.44,0.53c-0.01,2.76,0.02,5.51,0.06,8.27c0,0.08,0.13,0.16,0.2,0.24
			C147.37,209.71,147.36,209.12,147.36,208.6z"/>
		<path class="st1" d="M164,194.99c0,0.82,0,1.63,0,2.72c0.74-0.42,1.28-0.69,1.79-1.02c12.12-8.02,24.24-16.06,36.36-24.09
			c0.74-0.49,1.46-1.03,2.24-1.46c0.9-0.51,1.17-1.14,0.99-2.2c-0.72-4.32-1.94-8.49-3.48-12.57c-3.85-10.17-9.51-19.26-16.36-27.66
			c-5.49-6.73-11.68-12.78-18.36-18.32c-0.85-0.71-1.72-1.1-2.84-1.08c-2.78,0.05-5.56,0.01-8.34,0.02c-0.55,0-1.11,0.1-1.89,0.18
			c0.34,0.67,0.55,1.13,0.8,1.57c6.67,11.73,10.94,24.28,12.74,37.64c1.78,13.22,0.9,26.28-2.8,39.13c-0.1,0.35-0.21,0.7-0.3,1.06
			c-0.31,1.21-0.32,1.24,0.81,1.8c0.49,0.24,0.75,0.54,0.76,1.07c0.01,0.37,0.03,0.73,0.03,1.1c-0.01,1.47-0.01,1.48-1.51,1.85
			C164.44,194.79,164.25,194.89,164,194.99z"/>
		<path class="st1" d="M77.35,198.47c9.97,0,19.93,0,29.9,0c0.52,0,1.05,0.01,1.57-0.01c1.4-0.05,1.62-0.24,1.63-1.7
			c0.02-7.13,0.08-14.27-0.02-21.4c-0.09-5.74-4.35-10.09-10.07-10.55c-0.42-0.03-0.84-0.05-1.26-0.05c-7.29,0-14.58-0.02-21.87,0
			c-5.84,0.02-11.35,1.39-16.38,4.38c-9.27,5.51-14.76,13.62-16.3,24.33c-0.17,1.19-0.24,2.4-0.26,3.6
			c-0.01,1.1,0.21,1.29,1.27,1.36c0.52,0.04,1.05,0.02,1.57,0.02C57.21,198.47,67.28,198.47,77.35,198.47z"/>
		<path class="st1" d="M112.42,190.42c0.2-0.31,0.48-0.56,0.55-0.85c0.72-3.34,2.35-6.27,4.01-9.19c0.34-0.6,0.95-1.04,1.61-1.74
			c0.07-0.62,0.25-1.49-0.44-2.27c-0.15-0.17-0.14-0.49-0.17-0.75c-0.02-0.15,0.02-0.32,0.05-0.47c0.96-3.77,0.57-7.62,0.62-11.43
			c0.03-2.41,0.01-4.83,0-7.24c0-0.56-0.07-1.13-0.12-1.84c-0.65-0.07-1.2-0.17-1.75-0.17c-16.16-0.01-32.32,0.02-48.48-0.01
			c-12.76-0.03-24.79,9.46-26.73,23.56c-0.15,1.09-0.18,2.2-0.18,3.3c-0.02,5.09-0.01,10.18-0.01,15.27c0,0.47-0.02,0.96,0.09,1.41
			c0.06,0.23,0.41,0.51,0.63,0.52c0.22,0.01,0.56-0.27,0.64-0.49c0.12-0.33,0.07-0.72,0.08-1.09c0.5-16.51,12.4-30.28,28.62-33.06
			c1.75-0.3,3.55-0.43,5.32-0.45c7.61-0.05,15.22-0.02,22.83-0.03c3.43-0.01,6.37,1.19,8.77,3.62c2.27,2.31,3.42,5.12,3.44,8.37
			c0.01,2.36,0.01,4.72,0.01,7.08c0,2.1-0.01,4.2,0.01,6.3C111.83,189.3,111.7,189.92,112.42,190.42z"/>
		<path class="st1" d="M94.03,84.56c-0.38,0.42-0.65,0.67-0.86,0.96c-5.07,7.09-11.22,13.16-17.78,18.85
			c-1.23,1.06-2.46,2.14-3.74,3.13c-0.92,0.71-1.46,1.53-1.66,2.72c-0.51,3.05-1.16,6.08-1.73,9.12c-0.1,0.55-0.12,1.11-0.18,1.64
			c1.53,0.41,36.98,0.19,39.46-0.24c0.05-0.49,0.18-1.04,0.17-1.58c-0.15-6.35-0.34-12.69-0.45-19.04
			c-0.03-1.41-0.52-2.44-1.52-3.44c-3.54-3.58-6.99-7.25-10.48-10.89C94.91,85.41,94.53,85.06,94.03,84.56z"/>
		<path class="st2" d="M144.81,208.54c0-2.78,0-5.33,0-8.02c-0.81-0.03-1.53-0.09-2.25-0.09c-19.93,0-39.86,0-59.79,0
			c-8.6,0-17.2-0.01-25.8,0.01c-0.73,0-1.49,0.01-2.17,0.24c-1.73,0.57-2.84,2.41-2.66,4.2c0.18,1.84,1.56,3.38,3.38,3.65
			c0.98,0.14,1.99,0.15,2.98,0.15c25.54,0.01,51.08,0.01,76.62,0.01c2.57,0,5.14,0.01,7.71-0.01
			C143.45,208.66,144.07,208.59,144.81,208.54z"/>
		<path class="st1" d="M143.01,96.13c-0.08-2.18,0.01-4.26-0.44-6.47c-0.81-0.02-1.59-0.08-2.35-0.06
			c-7.08,0.11-14.16,0.22-21.24,0.38c-1.25,0.03-2.17-0.31-3.01-1.26c-5.35-6.05-10.76-12.05-16.14-18.07
			c-1.33-1.49-2.71-2.95-4.46-3.94c-0.99-0.56-2.07-1.05-3.17-1.3c-1.89-0.42-3.13,0.3-3.93,2.06c-1.57,3.48-1.25,6.76,1.23,9.71
			c1.93,2.28,3.9,4.54,5.95,6.71c4.25,4.5,8.52,8.98,12.89,13.36c2.71,2.71,2.26,2.45,5.97,2.2c4.45-0.29,8.88-0.78,13.31-1.28
			c4.69-0.53,9.36-1.18,14.04-1.79C142.01,96.34,142.36,96.25,143.01,96.13z"/>
		<path class="st1" d="M197.23,178.69c0.3,0.73,0.48,1.21,0.7,1.68c3.24,6.82,6.5,13.63,9.7,20.47c0.54,1.15,1.18,1.64,2.49,1.62
			c6.34-0.06,12.69-0.03,19.04-0.03c0.56,0,1.13-0.07,1.87-0.13c0-0.77,0.07-1.44-0.01-2.09c-1.38-12.02-10.84-21.38-22.94-22.77
			c-3.07-0.35-6.07-0.08-9.04,0.65C198.49,178.22,197.96,178.44,197.23,178.69z"/>
		<path class="st3" d="M93.36,152.92c7.6,0,15.2,0,22.81,0c2.36,0,2.39-0.03,2.39-2.36c0.01-1.84,0.02-3.67-0.02-5.51
			c-0.03-1.47-0.3-1.73-1.77-1.8c-2.78-0.12-5.55-0.22-8.33-0.34c-8.12-0.35-16.23-0.76-24.31-1.64c-0.57-0.06-1.15-0.11-1.71-0.25
			c-3.25-0.83-6.57-0.57-9.86-0.53c-2.91,0.03-4.56,1.73-4.61,4.63c-0.03,1.99-0.02,3.98,0,5.98c0.01,1.66,0.16,1.81,1.81,1.82
			c5.77,0.02,11.53,0.01,17.3,0.01C89.16,152.92,91.26,152.92,93.36,152.92z"/>
		<path class="st1" d="M77.28,56.96c0.48-2.69,0.92-5.19,1.4-7.85c-0.63-0.17-1.1-0.34-1.59-0.43c-7.02-1.25-14.05-2.49-21.07-3.73
			c-8.06-1.42-16.11-2.84-24.17-4.26c-0.77-0.14-1.54-0.24-2.27-0.35c-0.63,1.11-1.57,5.93-1.54,7.91c0.74,0.17,1.53,0.39,2.33,0.54
			c3.92,0.71,7.85,1.39,11.78,2.08c11.16,1.96,22.32,3.93,33.47,5.89C76.06,56.82,76.53,56.86,77.28,56.96z"/>
		<path class="st1" d="M91.92,82.19c-1-1.16-2.01-2.23-2.89-3.39c-0.83-1.07-1.68-2.17-2.25-3.38c-1.54-3.26-1-6.45,0.72-9.48
			c0.78-1.37,2.09-2,3.68-2.05c1.64-0.05,3.08,0.53,4.47,1.3c0.54,0.3,1.07,0.62,1.84,0.77c-0.1-0.29-0.13-0.66-0.33-0.84
			c-0.38-0.34-0.85-0.6-1.31-0.85c-3.3-1.79-6.81-2.99-10.47-3.74c-1.51-0.31-1.61-0.26-2.21,1.22c-3.89,9.7-7.07,19.62-9.25,29.85
			c-0.77,3.64-1.54,7.28-2.3,10.92c-0.06,0.3-0.09,0.6-0.16,1.1c0.41-0.18,0.71-0.24,0.91-0.41c6.92-5.89,13.44-12.18,18.72-19.64
			C91.35,83.16,91.6,82.71,91.92,82.19z"/>
		<path class="st1" d="M171.24,89.5c-1.69-0.47-10.25-0.43-11.66,0.05c0.25,0.47,0.49,0.91,0.72,1.36c0.73,1.42,1.19,2.9,1.17,4.52
			c-0.02,2.54-1.13,4.46-3.31,5.69c-2.71,1.54-5.66,1.8-8.69,1.29c-1.29-0.21-2.16-1.03-2.73-2.16c-0.33-0.65-0.61-1.32-0.99-2.15
			c-0.25,0.34-0.51,0.54-0.56,0.79c-0.28,1.49-0.69,2.98-0.72,4.47c-0.05,2.5,1.79,4.34,4.28,4.59c0.42,0.04,0.84,0.03,1.26,0.03
			c6.34,0,12.69,0,19.03,0c0.1,0,0.21,0,0.31,0c1.93-0.02,1.97-0.04,1.98-1.91c0.01-5.03,0.01-10.06,0-15.1
			C171.34,90.51,171.28,90.05,171.24,89.5z"/>
		<path class="st4" d="M209.3,203.82c0,0.62,0,1.09,0,1.56c0,1.92-1.1,3.45-2.81,3.9c-1.86,0.49-3.62-0.21-4.59-1.89
			c-0.47-0.82-0.87-1.68-1.24-2.55c-0.35-0.83-0.88-1.2-1.81-1.17c-1.78,0.05-3.57-0.01-5.35,0.02c-1.4,0.02-1.52,0.16-1.57,1.54
			c-0.24,6.06,4.2,11.83,10.23,13.29c8.16,1.98,16.19-3.94,16.65-12.32c0.16-2.94-0.32-2.51-2.32-2.53c-2.1-0.01-4.2,0-6.3,0.01
			C209.94,203.7,209.68,203.76,209.3,203.82z"/>
		<path class="st1" d="M87.86,33.85c0.35,0.06,0.56,0.14,0.76,0.12c8.02-0.94,16.08-1.43,24.14-1.8c0.2-0.01,0.39-0.12,0.74-0.23
			c-0.08-0.57-0.12-1.13-0.25-1.67c-1.38-5.67-5.25-8.92-11.08-9.16c-2.8-0.12-5.55,0.34-8.12,1.53c-4.26,1.97-6.22,5.42-6.32,10.03
			C87.71,33.02,87.8,33.37,87.86,33.85z"/>
		<path class="st1" d="M189.88,182.69c-5.72,3.38-11.15,14.06-10.01,19.44c1.23,0.39,17.58,0.45,19.21,0.03
			c-0.11-0.38-0.17-0.79-0.34-1.14c-2.74-5.79-5.49-11.57-8.24-17.35C190.35,183.35,190.12,183.06,189.88,182.69z"/>
		<path class="st1" d="M162.32,194.84c-0.84-0.06-1.55-0.16-2.27-0.16c-5.92,0.02-11.85,0.12-17.77,0.09
			c-9.28-0.06-18.56-0.2-27.83-0.31c-0.78-0.01-1.56,0-2.35,0c-0.45,1.42-0.3,2.68-0.1,4.08c0.67,0.04,1.23,0.1,1.8,0.1
			c15.52,0.01,31.04,0,46.56,0c0.26,0,0.53,0.01,0.79-0.01c1.09-0.08,1.24-0.2,1.27-1.33C162.43,196.53,162.36,195.76,162.32,194.84
			z"/>
		<path class="st4" d="M64.11,210.1c0.95,4.91,7.06,9.02,12.96,8.81c5.4-0.19,11.23-4.55,11.74-8.78
			C87.61,209.84,65.78,209.8,64.11,210.1z"/>
		<path class="st2" d="M195.57,178.72c-0.53,0.29-0.9,0.46-1.24,0.68c-1.05,0.69-2.08,1.4-3.22,2.17c0.22,0.56,0.38,1.04,0.6,1.5
			c3.62,7.63,7.25,15.25,10.88,22.88c0.18,0.38,0.36,0.77,0.61,1.1c0.84,1.12,2.16,1.44,3.35,0.84c1.25-0.63,1.79-1.96,1.34-3.31
			c-0.12-0.35-0.27-0.68-0.42-1.01c-3.71-7.82-7.43-15.63-11.15-23.45C196.12,179.69,195.88,179.29,195.57,178.72z"/>
		<path class="st3" d="M133.62,184.57c-0.28,0.16-0.6,0.27-0.82,0.49c-0.4,0.41-0.68,0.95-1.11,1.31c-0.21,0.18-0.75,0.25-0.96,0.1
			c-0.19-0.13-0.29-0.68-0.18-0.93c0.27-0.61,0.68-1.16,1.01-1.69c-0.23-0.63-0.61-0.71-0.99-0.35c-0.37,0.36-0.64,0.82-0.97,1.23
			c-0.23,0.28-0.45,0.6-0.74,0.8c-0.18,0.12-0.58,0.16-0.71,0.05c-0.19-0.18-0.37-0.56-0.31-0.78c0.13-0.44,0.43-0.83,0.65-1.24
			c0.2-0.35,0.39-0.71,0.77-1.42c-0.57,0.27-0.88,0.32-1.03,0.49c-0.47,0.56-0.89,1.16-1.3,1.77c-0.46,0.7-1.08,0.92-1.89,0.76
			c-1.73-0.34-3.31-0.97-4.68-2.1c-0.64-0.53-1.29-1.04-2.02-1.62c-0.27,0.27-0.55,0.44-0.67,0.7c-0.95,1.98-1.89,3.97-2.8,5.97
			c-0.17,0.37-0.24,0.8-0.31,1.21c-0.09,0.56,0.21,0.91,0.75,0.99c0.41,0.06,0.83,0.07,1.25,0.07c7.65,0.07,15.3,0.13,22.95,0.18
			c0.55,0,1.1-0.07,1.71-0.12c-0.58-1.51-3.21-3.63-5.62-4.59c-0.35,0.38-0.72,0.81-1.1,1.22c-0.32,0.34-0.75,0.54-1.09,0.15
			c-0.18-0.21-0.21-0.68-0.12-0.97c0.13-0.48,0.42-0.91,0.64-1.36C133.85,184.79,133.74,184.68,133.62,184.57z"/>
		<path class="st1" d="M105.72,74.9c0.03-0.2,0.1-0.41,0.08-0.6c-0.42-3.54-0.84-7.08-1.29-10.61c-0.12-0.94-0.61-1.61-1.43-2.13
			c-4.8-3-9.58-6.05-14.38-9.07c-0.31-0.19-0.64-0.34-0.95-0.5c-0.91,0.92-2.23,3.71-2.57,5.48c0.52,0.15,1.05,0.32,1.59,0.45
			c3.91,0.89,7.61,2.3,11.14,4.23c1.73,0.94,2.54,2.25,2.49,4.16c-0.01,0.21,0.05,0.43,0.02,0.63c-0.29,1.65,0.4,2.91,1.49,4.08
			c1.21,1.29,2.32,2.68,3.47,4.03C105.51,75,105.62,74.95,105.72,74.9z"/>
		<path class="st3" d="M156.59,185.88c-0.42,0.49-0.75,0.98-1.19,1.33c-0.22,0.17-0.69,0.19-0.96,0.08
			c-0.16-0.07-0.26-0.57-0.18-0.82c0.12-0.44,0.43-0.84,0.59-1.27c0.05-0.12-0.12-0.38-0.25-0.5c-0.08-0.07-0.34-0.06-0.42,0.02
			c-0.27,0.25-0.49,0.54-0.72,0.82c-0.27,0.32-0.47,0.74-0.81,0.95c-0.24,0.16-0.7,0.16-0.97,0.04c-0.15-0.07-0.24-0.58-0.15-0.82
			c0.16-0.43,0.47-0.81,0.71-1.22c0.18-0.31,0.46-0.67,0.05-0.97c-0.48-0.36-0.77,0.05-1.02,0.38c-0.29,0.37-0.54,0.77-0.82,1.15
			c-0.16,0.21-0.3,0.48-0.52,0.57c-0.26,0.11-0.66,0.17-0.86,0.04c-0.19-0.13-0.32-0.57-0.25-0.8c0.14-0.44,0.46-0.81,0.68-1.23
			c0.17-0.34,0.3-0.7,0.51-1.21c-0.85,0.13-1.03,0.68-1.33,1.07c-0.29,0.37-0.56,0.76-0.83,1.15c-0.44,0.65-1.02,0.83-1.78,0.68
			c-1.84-0.36-3.51-1.06-4.96-2.26c-0.56-0.46-1.14-0.9-1.74-1.38c-1.03,0.83-1.41,1.89-1.78,3.09c0.36,0.3,0.69,0.63,1.06,0.89
			c1.73,1.21,3.37,2.49,4.65,4.2c0.24,0.33,0.75,0.52,1.17,0.63c0.39,0.11,0.83,0.05,1.25,0.05c4.93,0,9.87,0.01,14.8,0
			c0.6,0,1.25,0.13,1.81-0.25C161.62,188.85,158.95,186.78,156.59,185.88z"/>
		<path class="st5" d="M145.41,90.52c2.01-0.59,4.01-1.21,6.05-1.7c1.06-0.26,2.17-0.31,3.27-0.39c1.17-0.09,2.14,0.39,2.95,1.22
			c1.27,1.32,2.07,2.88,2.35,4.7c0.4,2.64-0.7,4.79-3.14,5.88c-2.15,0.96-4.41,1.27-6.76,0.9c-1.03-0.16-1.77-0.68-2.17-1.6
			c-0.35-0.81-0.64-1.66-0.86-2.52c-0.47-1.86-0.45-1.86-2.23-2.07c-0.09-0.01-0.17-0.1-0.37-0.23c-0.09-0.79-0.19-1.67-0.27-2.55
			c-0.03-0.36-0.01-0.72-0.01-1.13C144.66,90.85,145.02,90.63,145.41,90.52z M148.24,94.25c-0.03,2.15,1.62,3.85,3.72,3.85
			c2.07,0,3.79-1.77,3.76-3.85c-0.03-2.06-1.66-3.63-3.76-3.64C149.84,90.6,148.27,92.14,148.24,94.25z"/>
		<path class="st6" d="M113.71,41.56c-2.58,0.24-4.92,0.47-7.25,0.67c-0.82,0.07-1.3,0.39-1.48,1.29c-0.4,2-0.89,3.98-1.4,5.95
			c-0.19,0.75,0.05,1.18,0.68,1.54c1.56,0.88,3.2,1.53,4.96,1.89c0.69,0.14,1.34,0.14,1.79-0.57c1.74-2.72,3.2-5.54,2.99-8.9
			C113.96,42.86,113.83,42.31,113.71,41.56z"/>
		<path class="st2" d="M161.69,200.51c-4.35,0-8.57,0-12.94,0c-0.34,2.65-0.18,5.24-0.1,7.78
			C153.54,210.03,160.88,205.69,161.69,200.51z"/>
		<path class="st1" d="M140.37,87.86c-4.28-0.34-8.56-0.69-12.84-1.03c-2.87-0.23-5.74-0.47-8.62-0.65
			c-0.96-0.06-1.51-0.57-2.02-1.28c-2.84-3.96-5.7-7.9-8.56-11.85c-0.29-0.41-0.61-0.8-0.99-1.29c-0.22,1.2-0.05,4.86,0.27,5.55
			c0.17,0.37,0.44,0.71,0.72,1.01c2.8,3.05,5.63,6.07,8.4,9.15c0.74,0.82,1.55,1.1,2.62,1.07c5.24-0.13,10.48-0.21,15.71-0.31
			c1.77-0.03,3.55-0.06,5.32-0.09C140.38,88.04,140.38,87.95,140.37,87.86z"/>
		<path class="st5" d="M110.74,41.09c-1.78,0.16-3.54,0.33-5.3,0.46c-0.24,0.02-0.52-0.1-0.73-0.24c-1.03-0.72-2.04-1.46-3.05-2.21
			c-0.49-0.36-0.59-0.8-0.33-1.37c0.37-0.81,0.74-1.63,0.97-2.48c0.25-0.93,0.81-1.27,1.7-1.28c0.52,0,1.05-0.07,1.57-0.06
			c0.64,0.01,1.32-0.21,1.98,0.19c-0.3,0.38-0.59,0.64-0.73,0.96c-0.11,0.25-0.03,0.58-0.04,0.87c0.33-0.01,0.78,0.11,0.96-0.06
			c0.62-0.56,1.36-0.72,2.14-0.89c0.5-0.11,0.95-0.45,1.59-0.77C111.23,36.47,110.99,38.69,110.74,41.09z M108.53,39.35
			c0.06,0.17,0.36,0.3,0.57,0.33c0.08,0.01,0.32-0.31,0.29-0.44c-0.05-0.2-0.26-0.35-0.52-0.66
			C108.69,38.95,108.47,39.19,108.53,39.35z"/>
		<path class="st2" d="M178.86,89.25c-2.05-0.26-3.99-0.26-5.89-0.02c-0.29,1.35-0.36,12.83-0.09,14.88
			c0.22-0.21,0.45-0.33,0.52-0.51c1.78-4.48,3.55-8.97,5.31-13.45C178.81,89.93,178.8,89.67,178.86,89.25z"/>
		<path class="st1" d="M88.96,48.28c-0.3,0.82-0.52,1.43-0.8,2.18c5.21,3.3,10.33,6.54,15.5,9.81c0.67-0.94,0.57-1.86,0.65-2.72
			c0.02-0.23-0.28-0.54-0.52-0.72c-0.42-0.31-0.89-0.55-1.34-0.82c-3.86-2.23-7.72-4.46-11.59-6.69
			C90.33,49.01,89.78,48.72,88.96,48.28z"/>
		<path class="st5" d="M91.25,47.93c3.56,2.06,7.13,4.12,10.76,6.21c0.42-0.72,0.24-1.21-0.15-1.66c-0.17-0.19-0.42-0.31-0.62-0.47
			c-0.36-0.28-0.9-0.52-0.64-1.1c0.28-0.61,0.77-0.33,1.22-0.16c0.13,0.05,0.28,0.04,0.45,0.06c-0.49-1.06-4.07-5.05-5.74-6.36
			c-0.39,0.34-0.82,0.68-1.23,1.06c-0.87,0.8-1.78,1.47-3.06,1.34C91.69,46.8,91.34,47.05,91.25,47.93z"/>
		<path class="st5" d="M99.99,44.74c-2.17,0.01-3.85-1.93-3.53-4.08c0.25-1.72,2.33-2.74,3.71-1.77c1.23,0.87,2.39,1.86,3.61,2.75
			c0.6,0.44,0.72,0.93,0.54,1.63c-0.43,1.67-0.78,3.36-1.19,5.04c-0.08,0.33-0.25,0.65-0.46,1.17c-1.31-1.17-2.38-2.32-3.46-3.75
			c0.63-0.1,1.04-0.13,1.42-0.23c0.42-0.11,0.96-0.07,1.21-0.89C101.11,44.66,100.55,44.74,99.99,44.74z M97.25,41.02
			c0.49,0.22,0.86,0.4,1.23,0.57c0,0.44,0,0.87,0,1.3c0.12,0.08,0.23,0.17,0.35,0.25c0.18-0.36,0.36-0.72,0.53-1.05
			c0.54,0.2,0.95,0.36,1.53,0.58C100.03,40.75,98.94,40.27,97.25,41.02z"/>
		<path class="st4" d="M143.51,193.35c0.3-1.02-0.09-1.3-0.81-1.31c-1.99-0.02-3.99-0.05-5.98-0.06c-3.88-0.02-7.77-0.01-11.65-0.06
			c-3.25-0.04-6.5-0.14-9.75-0.2c-0.47-0.01-0.94,0-1.42,0.03c-0.71,0.04-0.85,0.47-0.68,1.26c3.31,0.25,6.66,0.06,9.99,0.17
			c3.41,0.11,6.82,0.14,10.23,0.17C136.78,193.37,140.13,193.35,143.51,193.35z"/>
		<path class="st5" d="M126.18,177.42c-1.53-0.18-3.02-0.37-4.51-0.52c-0.57-0.06-0.85,0.29-0.91,0.84
			c-0.05,0.41-0.11,0.83-0.18,1.24c-0.37,2.28-0.23,2.59,1.79,3.76c0.58,0.34,1.22,0.62,1.86,0.8c1.2,0.32,1.62,0.43,2.19-1.06
			C125.13,180.98,126.51,179.31,126.18,177.42z"/>
		<path class="st5" d="M147.41,182.57c-1.18-1.14-0.36-2.65-0.84-3.88c-1.16-0.41-3.49-0.46-5.22-0.07
			c-0.02,0.71-0.12,1.48-0.04,2.23c0.03,0.36,0.32,0.76,0.6,1.02c0.93,0.85,2.02,1.46,3.25,1.79
			C146.55,184.04,146.55,184.06,147.41,182.57z"/>
		<path class="st4" d="M154.97,193.39c2.57,0,5.14,0,7.7,0c0.37,0,0.73,0,1.1-0.01c0.42-0.02,0.88-0.04,0.9-0.63
			c0.02-0.69-0.49-0.7-0.97-0.73c-0.21-0.01-0.42-0.01-0.63-0.01c-5.45-0.01-10.9-0.02-16.35-0.03c-0.26,0-0.52,0-0.79,0.02
			c-0.45,0.03-0.86,0.12-0.83,0.7c0.03,0.58,0.47,0.62,0.9,0.64c0.31,0.02,0.63,0.02,0.94,0.02c2.67,0,5.35,0,8.02,0
			C154.97,193.37,154.97,193.38,154.97,193.39z"/>
		<path class="st1" d="M112.96,34c-0.02,0.41-0.07,0.73-0.04,1.03c0.07,0.92,0.21,1.11,1.14,1.14c3.31,0.12,6.58-0.23,9.82-0.84
			c0.14-0.03,0.26-0.14,0.42-0.23C121.57,34.25,114.34,33.52,112.96,34z"/>
		<path class="st2" d="M146.55,209.57c0.82,0.14,0.8-0.45,0.81-0.97c0.02-1.51,0.02-3.02,0.01-4.53c0-0.99,0.01-1.98-0.06-2.96
			c-0.02-0.2-0.37-0.38-0.57-0.57c-0.15,0.18-0.44,0.35-0.44,0.53c-0.01,2.76,0.02,5.51,0.06,8.27
			C146.35,209.41,146.48,209.48,146.55,209.57z"/>
		<path d="M155.72,94.25c0.03,2.09-1.69,3.85-3.76,3.85c-2.1,0-3.75-1.7-3.72-3.85c0.03-2.11,1.6-3.64,3.72-3.64
			C154.06,90.61,155.68,92.19,155.72,94.25z M151.94,96.59c1.2,0.01,2.2-0.93,2.27-2.13c0.07-1.25-0.93-2.37-2.15-2.42
			c-1.22-0.05-2.32,0.99-2.37,2.23C149.64,95.49,150.7,96.58,151.94,96.59z"/>
		<path d="M108.87,38.58c-0.51,0.11-0.45,0.63-0.39,0.78c0.06,0.17,0.32,0.38,0.62,0.32c0.15-0.03,0.38-0.21,0.39-0.55
			C109.54,38.91,109.29,38.51,108.87,38.58z"/>
		<path d="M100.89,42.67c-0.86-1.91-1.95-2.39-3.64-1.65c0.49,0.22,0.86,0.4,1.23,0.57c0,0.44,0,0.87,0,1.3
			c0.12,0.08,0.23,0.17,0.35,0.25c0.18-0.36,0.36-0.72,0.53-1.05C99.9,42.29,100.31,42.45,100.89,42.67z"/>
		<path class="st3" d="M149.69,94.26c-0.05,1.22,1.01,2.31,2.25,2.33c1.2,0.01,2.2-0.93,2.27-2.13c0.07-1.25-0.93-2.37-2.15-2.42
			C150.84,91.99,149.73,93.02,149.69,94.26z"/>
	</g>
	
		<rect x="22.98" y="53.89" transform="matrix(0.9846 0.1748 -0.1748 0.9846 14.5294 -7.1619)" class="st7" width="49.87" height="50"/>
	<g>
		<path class="st8" d="M66.54,72.4c-1.36-2.45-3.53-4.21-6.2-4.69c-2.67-0.48-5.32,0.39-7.45,2.21c-0.39,0.33-0.75,0.69-1.1,1.07
			c1.24,0.29,2.05,1.48,1.82,2.73s-1.48,2.13-2.78,1.89l-1.62-0.3c-0.28,0.77-0.5,1.57-0.66,2.41c-0.15,0.84-0.23,1.62-0.24,2.41
			l1.61,0.29c1.32,0.24,2.2,1.49,1.96,2.79c-0.24,1.3-1.41,2.1-2.68,1.94c0.19,0.49,0.41,0.96,0.66,1.41
			c1.36,2.45,3.53,4.21,6.2,4.69c5.33,0.97,10.61-3.52,11.8-10.02C68.44,77.99,67.9,74.85,66.54,72.4L66.54,72.4z"/>
		<path class="st8" d="M50.31,77.12"/>
		<path class="st8" d="M47.93,65.47l12.46,2.27c1.32,0.24,2.2,1.49,1.96,2.79l0,0c-0.24,1.3-1.5,2.16-2.82,1.92l-12.46-2.27
			c-1.32-0.24-2.2-1.49-1.96-2.79l0,0C45.35,66.08,46.61,65.22,47.93,65.47z"/>
		<path class="st8" d="M41.16,73.87l15.02,2.73c1.32,0.24,2.2,1.49,1.96,2.79l-0.02,0.1c-0.24,1.3-1.5,2.16-2.82,1.92l-15.02-2.73
			c-1.32-0.24-2.2-1.49-1.96-2.79l0.02-0.1C38.58,74.49,39.84,73.63,41.16,73.87z"/>
		<path class="st8" d="M44.72,84.3l12.05,2.19c1.32,0.24,2.2,1.49,1.96,2.79l-0.01,0.04c-0.24,1.3-1.5,2.16-2.82,1.92l-12.05-2.19
			c-1.32-0.24-2.2-1.49-1.96-2.79l0.01-0.04C42.14,84.92,43.4,84.06,44.72,84.3z"/>
		
			<ellipse transform="matrix(0.179 -0.9838 0.9838 0.179 -32.3036 94.3595)" class="st8" cx="40.39" cy="66.54" rx="2.41" ry="2.45"/>
		<path class="st9" d="M42.28,67.04"/>
		<path class="st9" d="M40.56,64.59"/>
		<ellipse transform="matrix(0.179 -0.9838 0.9838 0.179 -46.4448 94.51)" class="st8" cx="33.41" cy="75.08" rx="2.41" ry="2.45"/>
		
			<ellipse transform="matrix(0.179 -0.9838 0.9838 0.179 -54.3551 105.1174)" class="st8" cx="35.81" cy="85.13" rx="2.41" ry="2.45"/>
		
			<ellipse transform="matrix(0.179 -0.9838 0.9838 0.179 -35.8989 88.1495)" class="st8" cx="34.87" cy="65.58" rx="1.21" ry="1.23"/>
		
			<ellipse transform="matrix(0.179 -0.9838 0.9838 0.179 -50.1075 88.1811)" class="st8" cx="27.78" cy="74.11" rx="1.21" ry="1.23"/>
		
			<ellipse transform="matrix(0.179 -0.9838 0.9838 0.179 -57.7411 98.8674)" class="st8" cx="30.37" cy="84.03" rx="1.05" ry="1.07"/>
		<path class="st9" d="M35.34,75.53"/>
		<path class="st9" d="M33.88,73.24"/>
		<path class="st9" d="M42.24,66.96"/>
		<path class="st9" d="M40.78,64.66"/>
		<path class="st9" d="M64.02,86.8"/>
		<path class="st9" d="M55.78,72.33"/>
	</g>
	<g>
		<path class="st10" d="M35.09,64.78c0.43,0.08,0.71,0.5,0.63,0.94"/>
		<path class="st10" d="M27.98,73.31c0.43,0.08,0.71,0.5,0.63,0.94"/>
		<path class="st11" d="M36.66,83.46c0.85,0.43,1.17,1.13,1.09,2.02"/>
		<path class="st10" d="M30.48,83.32c0.38,0.07,0.63,0.44,0.56,0.83"/>
		<path class="st11" d="M34.21,73.37c0.85,0.43,1.17,1.13,1.09,2.02"/>
		<path class="st11" d="M41.17,64.83c0.85,0.43,1.17,1.13,1.09,2.02"/>
		<path class="st12" d="M62.43,70.54c3.2,2.09,4.23,5.84,3.64,10.81"/>
	</g>
</g>
</svg>
