<?xml version="1.0" encoding="utf-8"?>
<!-- Generator: Adobe Illustrator 27.4.0, SVG Export Plug-In . SVG Version: 6.00 Build 0)  -->
<svg version="1.1" xmlns="http://www.w3.org/2000/svg" xmlns:xlink="http://www.w3.org/1999/xlink" x="0px" y="0px"
	 viewBox="0 0 250 250" style="enable-background:new 0 0 250 250;" xml:space="preserve">
<style type="text/css">
	.st0{opacity:0.35;fill:#E7A184;}
	.st1{fill:#414042;}
	.st2{fill:#FFFFFF;}
	.st3{fill:#6D6E71;}
	.st4{fill:#2CBDBD;}
	.st5{fill:none;stroke:#FFFFFF;stroke-width:2.5;stroke-linecap:round;stroke-miterlimit:10;}
	.st6{fill:none;stroke:#FFFFFF;stroke-width:0.25;stroke-linecap:round;stroke-miterlimit:10;}
	.st7{fill:none;stroke:#FFFFFF;stroke-width:0.75;stroke-linecap:round;stroke-miterlimit:10;}
	.st8{fill:#2CBDBD;stroke:#FFFFFF;stroke-width:3;stroke-linecap:round;stroke-miterlimit:10;}
	.st9{fill:#84CAE7;}
</style>
<g id="Layer_2">
	<path class="st0" d="M185.41,21.27c20.01,8.01,44.3,12.25,55.09,25.92c10.96,13.51,8.41,36.29,3.81,56.55
		c-4.6,20.26-11.59,37.7-23.66,49.17c-12.07,11.47-29.53,16.65-44.93,33.46c-15.24,16.97-28.58,45.24-48.43,56.55
		c-19.85,11.15-46.36,5.18-64.14-10.21s-26.99-40.37-38.42-62.99C13.3,147.1-0.36,126.84,2.02,107.83s20.96-36.6,37.63-50.11
		c16.83-13.51,31.75-23.09,47.15-33.77s31.28-22.62,47-22.62C149.68,1.32,165.4,13.1,185.41,21.27z"/>
</g>
<g id="Layer_1">
	<g>
		<path class="st1" d="M171.83,105.92h-1.39c-0.41,0-0.75-0.33-0.75-0.75V73.61c0-0.41,0.33-0.75,0.75-0.75h1.39
			c0.41,0,0.75,0.33,0.75,0.75v31.57C172.58,105.58,172.24,105.92,171.83,105.92z"/>
		<rect x="81.32" y="47.71" class="st2" width="85.91" height="163.97"/>
		<path class="st1" d="M159.26,39H89.3c-6.56,0-11.87,6.1-11.87,13.61v162.77c0,7.52,5.32,13.61,11.87,13.61h69.97
			c6.56,0,11.87-6.1,11.87-13.61V52.61C171.13,45.1,165.82,39,159.26,39z M165.72,196.79c0,5.69-4.02,10.31-8.99,10.31h-64.9
			c-4.96,0-8.99-4.61-8.99-10.31V64.78c0-5.69,4.02-10.31,8.99-10.31h64.9c4.96,0,8.99,4.61,8.99,10.31V196.79z"/>
		<circle class="st3" cx="124.28" cy="217.69" r="6"/>
		<circle class="st3" cx="124.28" cy="44.33" r="1.3"/>
		<path class="st3" d="M139.64,49.52h-30.72c-0.25,0-0.45-0.2-0.45-0.45v-0.45c0-0.25,0.2-0.45,0.45-0.45h30.72
			c0.25,0,0.45,0.2,0.45,0.45v0.45C140.09,49.32,139.89,49.52,139.64,49.52z"/>
		<path class="st4" d="M128.07,132.58"/>
		<path class="st5" d="M113.31,119.48"/>
		<path class="st5" d="M110.07,116.23"/>
		<path class="st5" d="M105.23,134.31"/>
		<path class="st5" d="M102.42,131.22"/>
		<path class="st5" d="M113.23,119.36"/>
		<path class="st5" d="M110.42,116.28"/>
		<path class="st5" d="M151.23,143.5"/>
		<path class="st5" d="M134.96,123.79"/>
		<g>
			<path class="st4" d="M151.79,120.92c-2.7-3.35-6.43-5.42-10.56-5.42s-7.85,2.07-10.56,5.42c-0.49,0.61-0.94,1.25-1.36,1.93
				c1.93,0.09,3.47,1.69,3.47,3.65s-1.63,3.65-3.65,3.65h-2.51c-0.21,1.24-0.32,2.53-0.32,3.85c0,1.32,0.1,2.52,0.3,3.73h2.48
				c2.04,0,3.7,1.66,3.7,3.7s-1.54,3.58-3.49,3.69c0.42,0.69,0.88,1.35,1.37,1.96c2.7,3.35,6.43,5.42,10.56,5.42
				c8.24,0,14.93-8.28,14.93-18.5C156.17,128.89,154.5,124.27,151.79,120.92L151.79,120.92z"/>
			<path class="st4" d="M122.06,115.52h19.27c2.04,0,3.7,1.66,3.7,3.7l0,0c0,2.04-1.66,3.7-3.7,3.7h-19.27c-2.04,0-3.7-1.66-3.7-3.7
				l0,0C118.36,117.18,120.02,115.52,122.06,115.52z"/>
			<path class="st4" d="M114.21,130.17h23.22c2.04,0,3.7,1.66,3.7,3.7v0.16c0,2.04-1.66,3.7-3.7,3.7h-23.22
				c-2.04,0-3.7-1.66-3.7-3.7v-0.16C110.51,131.82,112.17,130.17,114.21,130.17z"/>
			<path class="st4" d="M122.38,145.04h18.63c2.04,0,3.7,1.66,3.7,3.7v0.06c0,2.04-1.66,3.7-3.7,3.7h-18.63
				c-2.04,0-3.7-1.66-3.7-3.7v-0.06C118.68,146.69,120.34,145.04,122.38,145.04z"/>
			<circle class="st4" cx="111.06" cy="119.23" r="3.73"/>
			<circle class="st4" cx="102.94" cy="134.16" r="3.73"/>
			<circle class="st4" cx="109.27" cy="148.77" r="3.73"/>
			<circle class="st4" cx="102.54" cy="119.31" r="1.87"/>
			<circle class="st4" cx="94.26" cy="134.24" r="1.87"/>
			<circle class="st4" cx="100.83" cy="148.6" r="1.62"/>
			<path class="st6" d="M102.66,118.02c0.66,0,1.2,0.56,1.2,1.25"/>
			<path class="st6" d="M94.33,132.97c0.66,0,1.2,0.56,1.2,1.25"/>
			<path class="st7" d="M110.09,145.99c1.39,0.41,2.06,1.39,2.18,2.78"/>
			<path class="st6" d="M100.8,147.5c0.58,0,1.06,0.5,1.06,1.11"/>
			<path class="st8" d="M140.63,118.99c2.93,0,5.72,1.29,7.84,3.63c2.24,2.46,3.47,5.76,3.47,9.29"/>
			<path class="st7" d="M103.67,131.34c1.39,0.41,2.06,1.39,2.18,2.78"/>
			<path class="st7" d="M111.77,116.42c1.39,0.41,2.06,1.39,2.18,2.78"/>
		</g>
	</g>
	<path class="st9" d="M287.52,173.83"/>
</g>
</svg>
